solid raspiberry pi mount
facet normal -0.9914448613738103 0.13052619222005224 0.0
  outer loop
    vertex 11.891349739447394 -1.6576826411946703 17.5
    vertex 11.567257993871168 -3.287001872802026 12.499999999999996
    vertex 11.567257993871168 -3.287001872802026 17.5
  endloop
endfacet
facet normal -0.9659258262890682 0.2588190451025215 0.0
  outer loop
    vertex 11.567257993871168 -3.287001872802026 12.499999999999996
    vertex 11.891349739447394 -1.6576826411946703 17.5
    vertex 11.891349739447394 -1.6576826411946703 12.499999999999996
  endloop
endfacet
facet normal 1.0 -7.304410448487518e-16 0.0
  outer loop
    vertex -13.399999999999995 -1.264665047630759e-15 12.499999999999996
    vertex -13.291349739447385 1.6576826411946572 17.5
    vertex -13.399999999999995 -1.2646650476307592e-15 17.5
  endloop
endfacet
facet normal 0.9914448613738104 -0.13052619222005196 0.0
  outer loop
    vertex -13.291349739447385 1.6576826411946572 17.5
    vertex -13.399999999999995 -1.264665047630759e-15 12.499999999999996
    vertex -13.291349739447385 1.6576826411946572 12.499999999999996
  endloop
endfacet
facet normal 1.0 -7.304410448487518e-16 0.0
  outer loop
    vertex -13.399999999999995 -1.264665047630759e-15 12.499999999999996
    vertex -13.291349739447389 -1.6576826411946546 17.5
    vertex -13.291349739447389 -1.6576826411946546 12.499999999999996
  endloop
endfacet
facet normal 0.9914448613738105 0.1305261922200512 0.0
  outer loop
    vertex -13.291349739447389 -1.6576826411946546 17.5
    vertex -13.399999999999995 -1.264665047630759e-15 12.499999999999996
    vertex -13.399999999999995 -1.2646650476307592e-15 17.5
  endloop
endfacet
facet normal -0.13052619222005118 0.9914448613738104 0.0
  outer loop
    vertex 0.9576826411946547 -12.591349739447395 17.5
    vertex 2.587001872802012 -12.267257993871171 12.499999999999996
    vertex 0.9576826411946547 -12.591349739447395 12.499999999999996
  endloop
endfacet
facet normal -0.25881904510252063 0.9659258262890684 -2.6851490450023218e-18
  outer loop
    vertex 2.587001872802012 -12.267257993871171 12.499999999999996
    vertex 0.9576826411946547 -12.591349739447395 17.5
    vertex 2.587001872802012 -12.267257993871171 17.5
  endloop
endfacet
facet normal 0.8660254037844384 -0.5000000000000003 0.0
  outer loop
    vertex -11.698522628062364 6.350000000000001 12.499999999999996
    vertex -12.433270062893337 4.860079591036638 17.5
    vertex -12.433270062893337 4.860079591036638 12.499999999999996
  endloop
endfacet
facet normal 0.9238795325112868 -0.3826834323650898 0.0
  outer loop
    vertex -12.433270062893337 4.860079591036638 17.5
    vertex -11.698522628062364 6.350000000000001 12.499999999999996
    vertex -11.698522628062364 6.350000000000001 17.5
  endloop
endfacet
facet normal -0.3826834323650898 -0.9238795325112868 0.0
  outer loop
    vertex 4.160079591036645 11.733270062893338 17.5
    vertex 2.5870018728020203 12.267257993871162 12.499999999999996
    vertex 4.160079591036645 11.733270062893338 12.499999999999996
  endloop
endfacet
facet normal -0.25881904510252085 -0.9659258262890682 0.0
  outer loop
    vertex 2.5870018728020203 12.267257993871162 12.499999999999996
    vertex 4.160079591036645 11.733270062893338 17.5
    vertex 3.8000000000000043 11.855500613600508 17.5
  endloop
endfacet
facet normal -0.25881904510252085 -0.9659258262890682 0.0
  outer loop
    vertex 2.5870018728020203 12.267257993871162 12.499999999999996
    vertex 3.8000000000000043 11.855500613600508 17.5
    vertex 2.5870018728020203 12.267257993871162 17.999999999999996
  endloop
endfacet
facet normal -0.25881904510252085 -0.9659258262890682 0.0
  outer loop
    vertex 2.5870018728020203 12.267257993871162 17.999999999999996
    vertex 3.8000000000000043 11.855500613600508 17.5
    vertex 3.8000000000000043 11.855500613600508 17.999999999999996
  endloop
endfacet
facet normal 0.25881904510252085 -0.9659258262890682 0.0
  outer loop
    vertex -3.987001872802008 12.267257993871164 17.999999999999996
    vertex -5.560079591036632 11.73327006289334 12.499999999999996
    vertex -3.987001872802008 12.267257993871164 12.499999999999996
  endloop
endfacet
facet normal 0.3826834323650894 -0.923879532511287 0.0
  outer loop
    vertex -5.560079591036632 11.73327006289334 12.499999999999996
    vertex -3.987001872802008 12.267257993871164 17.999999999999996
    vertex -5.199999999999996 11.855500613600508 17.5
  endloop
endfacet
facet normal 0.3214394653031614 -0.9469301294951057 0.0
  outer loop
    vertex -5.199999999999996 11.855500613600508 17.5
    vertex -3.987001872802008 12.267257993871164 17.999999999999996
    vertex -5.199999999999996 11.855500613600508 17.999999999999996
  endloop
endfacet
facet normal 0.3826834323650894 -0.923879532511287 0.0
  outer loop
    vertex -5.560079591036632 11.73327006289334 17.5
    vertex -5.560079591036632 11.73327006289334 12.499999999999996
    vertex -5.199999999999996 11.855500613600508 17.5
  endloop
endfacet
facet normal 0.7933533402912348 -0.6087614290087209 0.0
  outer loop
    vertex -10.77558742169868 7.7312701484107516 12.499999999999996
    vertex -11.698522628062364 6.350000000000001 17.5
    vertex -11.698522628062364 6.350000000000001 12.499999999999996
  endloop
endfacet
facet normal 0.8660254037844384 -0.5000000000000003 0.0
  outer loop
    vertex -11.698522628062364 6.350000000000001 17.5
    vertex -10.77558742169868 7.7312701484107516 12.499999999999996
    vertex -10.77558742169868 7.7312701484107516 17.5
  endloop
endfacet
facet normal 0.7071067811865474 -0.7071067811865477 0.0
  outer loop
    vertex -9.680256121069148 8.98025612106915 12.499999999999996
    vertex -10.77558742169868 7.7312701484107516 17.5
    vertex -10.77558742169868 7.7312701484107516 12.499999999999996
  endloop
endfacet
facet normal 0.7933533402912348 -0.6087614290087209 0.0
  outer loop
    vertex -10.77558742169868 7.7312701484107516 17.5
    vertex -9.680256121069148 8.98025612106915 12.499999999999996
    vertex -9.680256121069148 8.98025612106915 17.5
  endloop
endfacet
facet normal 0.3826834323650894 -0.923879532511287 0.0
  outer loop
    vertex -5.560079591036632 11.73327006289334 17.5
    vertex -7.049999999999993 10.99852262806237 12.499999999999996
    vertex -5.560079591036632 11.73327006289334 12.499999999999996
  endloop
endfacet
facet normal 0.4999999999999998 -0.8660254037844388 0.0
  outer loop
    vertex -7.049999999999993 10.99852262806237 12.499999999999996
    vertex -5.560079591036632 11.73327006289334 17.5
    vertex -7.049999999999993 10.99852262806237 17.5
  endloop
endfacet
facet normal 0.4999999999999998 -0.8660254037844388 0.0
  outer loop
    vertex -7.049999999999993 10.99852262806237 17.5
    vertex -8.431270148410743 10.075587421698685 12.499999999999996
    vertex -7.049999999999993 10.99852262806237 12.499999999999996
  endloop
endfacet
facet normal 0.6087614290087205 -0.7933533402912353 0.0
  outer loop
    vertex -8.431270148410743 10.075587421698685 12.499999999999996
    vertex -7.049999999999993 10.99852262806237 17.5
    vertex -8.431270148410743 10.075587421698685 17.5
  endloop
endfacet
facet normal 0.6087614290087205 -0.7933533402912353 0.0
  outer loop
    vertex -8.431270148410743 10.075587421698685 17.5
    vertex -9.680256121069148 8.98025612106915 12.499999999999996
    vertex -8.431270148410743 10.075587421698685 12.499999999999996
  endloop
endfacet
facet normal 0.7071067811865474 -0.7071067811865477 0.0
  outer loop
    vertex -9.680256121069148 8.98025612106915 12.499999999999996
    vertex -8.431270148410743 10.075587421698685 17.5
    vertex -9.680256121069148 8.98025612106915 17.5
  endloop
endfacet
facet normal 0.9238795325112868 -0.3826834323650898 0.0
  outer loop
    vertex -12.433270062893337 4.860079591036638 12.499999999999996
    vertex -12.967257993871161 3.287001872802014 17.5
    vertex -12.967257993871161 3.287001872802014 12.499999999999996
  endloop
endfacet
facet normal 0.9659258262890682 -0.2588190451025207 0.0
  outer loop
    vertex -12.967257993871161 3.287001872802014 17.5
    vertex -12.433270062893337 4.860079591036638 12.499999999999996
    vertex -12.433270062893337 4.860079591036638 17.5
  endloop
endfacet
facet normal -6.603306741311434e-17 -2.4260871789281877e-17 -1.0
  outer loop
    vertex 4.160079591036645 11.733270062893338 17.5
    vertex 3.8000000000000043 4.499999999999997 17.5
    vertex 3.8000000000000043 11.855500613600508 17.5
  endloop
endfacet
facet normal -6.603306741311434e-17 -2.4260871789281877e-17 -1.0
  outer loop
    vertex 3.8000000000000043 4.499999999999997 17.5
    vertex 4.160079591036645 11.733270062893338 17.5
    vertex 3.8000000000000043 -11.855500613600514 17.5
  endloop
endfacet
facet normal -6.603306741311434e-17 -2.4260871789281877e-17 -1.0
  outer loop
    vertex 3.8000000000000043 -11.855500613600514 17.5
    vertex 4.160079591036645 11.733270062893338 17.5
    vertex 4.160079591036636 -11.733270062893347 17.5
  endloop
endfacet
facet normal -6.603306741311434e-17 -2.4260871789281877e-17 -1.0
  outer loop
    vertex 4.160079591036636 -11.733270062893347 17.5
    vertex 4.160079591036645 11.733270062893338 17.5
    vertex 5.649999999999995 -10.998522628062378 17.5
  endloop
endfacet
facet normal -6.603306741311434e-17 -2.4260871789281877e-17 -1.0
  outer loop
    vertex 5.649999999999995 -10.998522628062378 17.5
    vertex 4.160079591036645 11.733270062893338 17.5
    vertex 5.650000000000005 10.998522628062366 17.5
  endloop
endfacet
facet normal -6.603306741311434e-17 -2.4260871789281877e-17 -1.0
  outer loop
    vertex 5.649999999999995 -10.998522628062378 17.5
    vertex 5.650000000000005 10.998522628062366 17.5
    vertex 7.031270148410746 -10.075587421698696 17.5
  endloop
endfacet
facet normal -6.603306741311434e-17 -2.4260871789281877e-17 -1.0
  outer loop
    vertex 7.031270148410746 -10.075587421698696 17.5
    vertex 5.650000000000005 10.998522628062366 17.5
    vertex 7.031270148410758 10.075587421698682 17.5
  endloop
endfacet
facet normal -6.603306741311434e-17 -2.4260871789281877e-17 -1.0
  outer loop
    vertex 7.031270148410746 -10.075587421698696 17.5
    vertex 7.031270148410758 10.075587421698682 17.5
    vertex 8.280256121069156 -8.980256121069157 17.5
  endloop
endfacet
facet normal -6.603306741311434e-17 -2.4260871789281877e-17 -1.0
  outer loop
    vertex 8.280256121069156 -8.980256121069157 17.5
    vertex 7.031270148410758 10.075587421698682 17.5
    vertex 8.280256121069158 8.98025612106915 17.5
  endloop
endfacet
facet normal -6.603306741311434e-17 -2.4260871789281877e-17 -1.0
  outer loop
    vertex 8.280256121069156 -8.980256121069157 17.5
    vertex 8.280256121069158 8.98025612106915 17.5
    vertex 9.375587421698688 -7.731270148410758 17.5
  endloop
endfacet
facet normal -6.603306741311434e-17 -2.4260871789281877e-17 -1.0
  outer loop
    vertex 9.375587421698688 -7.731270148410758 17.5
    vertex 8.280256121069158 8.98025612106915 17.5
    vertex 9.37558742169869 7.731270148410748 17.5
  endloop
endfacet
facet normal -6.603306741311434e-17 -2.4260871789281877e-17 -1.0
  outer loop
    vertex 9.375587421698688 -7.731270148410758 17.5
    vertex 9.37558742169869 7.731270148410748 17.5
    vertex 10.29852262806237 -6.3500000000000085 17.5
  endloop
endfacet
facet normal -6.603306741311434e-17 -2.4260871789281877e-17 -1.0
  outer loop
    vertex 10.29852262806237 -6.3500000000000085 17.5
    vertex 9.37558742169869 7.731270148410748 17.5
    vertex 10.298522628062376 6.349999999999996 17.5
  endloop
endfacet
facet normal -6.603306741311434e-17 -2.4260871789281877e-17 -1.0
  outer loop
    vertex 10.29852262806237 -6.3500000000000085 17.5
    vertex 10.298522628062376 6.349999999999996 17.5
    vertex 11.033270062893342 -4.8600795910366505 17.5
  endloop
endfacet
facet normal -6.603306741311434e-17 -2.4260871789281877e-17 -1.0
  outer loop
    vertex 11.033270062893342 -4.8600795910366505 17.5
    vertex 10.298522628062376 6.349999999999996 17.5
    vertex 11.033270062893346 4.860079591036637 17.5
  endloop
endfacet
facet normal -6.603306741311434e-17 -2.4260871789281877e-17 -1.0
  outer loop
    vertex 11.033270062893342 -4.8600795910366505 17.5
    vertex 11.033270062893346 4.860079591036637 17.5
    vertex 11.567257993871168 -3.287001872802026 17.5
  endloop
endfacet
facet normal -6.603306741311434e-17 -2.4260871789281877e-17 -1.0
  outer loop
    vertex 11.567257993871168 -3.287001872802026 17.5
    vertex 11.033270062893346 4.860079591036637 17.5
    vertex 11.567257993871172 3.2870018728020103 17.5
  endloop
endfacet
facet normal -6.603306741311434e-17 -2.4260871789281877e-17 -1.0
  outer loop
    vertex 11.567257993871168 -3.287001872802026 17.5
    vertex 11.567257993871172 3.2870018728020103 17.5
    vertex 11.891349739447394 -1.6576826411946703 17.5
  endloop
endfacet
facet normal -6.603306741311434e-17 -2.4260871789281877e-17 -1.0
  outer loop
    vertex 11.891349739447394 -1.6576826411946703 17.5
    vertex 11.567257993871172 3.2870018728020103 17.5
    vertex 11.891349739447396 1.6576826411946521 17.5
  endloop
endfacet
facet normal -6.603306741311434e-17 -2.4260871789281877e-17 -1.0
  outer loop
    vertex 11.891349739447394 -1.6576826411946703 17.5
    vertex 11.891349739447396 1.6576826411946521 17.5
    vertex 12.000000000000004 -2.8199664825478975e-15 17.5
  endloop
endfacet
facet normal 0.13052619222005146 -0.9914448613738105 0.0
  outer loop
    vertex -2.357682641194648 12.59134973944739 17.999999999999996
    vertex -3.987001872802008 12.267257993871164 12.499999999999996
    vertex -2.357682641194648 12.59134973944739 12.499999999999996
  endloop
endfacet
facet normal 0.25881904510252085 -0.9659258262890682 0.0
  outer loop
    vertex -3.987001872802008 12.267257993871164 12.499999999999996
    vertex -2.357682641194648 12.59134973944739 17.999999999999996
    vertex -3.987001872802008 12.267257993871164 17.999999999999996
  endloop
endfacet
facet normal -0.25881904510252063 0.9659258262890683 -2.6851490450023233e-18
  outer loop
    vertex 2.587001872802012 -12.267257993871171 17.5
    vertex 4.160079591036636 -11.733270062893347 12.499999999999996
    vertex 2.587001872802012 -12.267257993871171 12.499999999999996
  endloop
endfacet
facet normal -0.3826834323650893 0.923879532511287 -2.6851490450023214e-18
  outer loop
    vertex 4.160079591036636 -11.733270062893347 12.499999999999996
    vertex 2.587001872802012 -12.267257993871171 17.5
    vertex 4.160079591036636 -11.733270062893347 17.5
  endloop
endfacet
facet normal -0.38268343236508917 0.923879532511287 -2.6851490450023276e-18
  outer loop
    vertex 4.160079591036636 -11.733270062893347 17.5
    vertex 2.587001872802012 -12.267257993871171 17.5
    vertex 3.8000000000000043 -11.855500613600514 17.5
  endloop
endfacet
facet normal 0.7071067811865478 0.7071067811865472 0.0
  outer loop
    vertex -9.680256121069155 -8.98025612106915 17.5
    vertex -8.43127014841075 -10.075587421698685 12.499999999999996
    vertex -9.680256121069155 -8.98025612106915 12.499999999999996
  endloop
endfacet
facet normal 0.6087614290087209 0.7933533402912349 0.0
  outer loop
    vertex -8.43127014841075 -10.075587421698685 12.499999999999996
    vertex -9.680256121069155 -8.98025612106915 17.5
    vertex -8.43127014841075 -10.075587421698685 17.5
  endloop
endfacet
facet normal 0.2588190451025216 0.9659258262890681 -3.705505682103218e-17
  outer loop
    vertex -3.9870018728020185 -12.267257993871167 17.5
    vertex -2.3576826411946628 -12.591349739447393 12.499999999999996
    vertex -3.9870018728020185 -12.267257993871167 12.499999999999996
  endloop
endfacet
facet normal 0.1305261922200523 0.9914448613738103 0.0
  outer loop
    vertex -2.3576826411946628 -12.591349739447393 12.499999999999996
    vertex -3.9870018728020185 -12.267257993871167 17.5
    vertex -2.3576826411946628 -12.591349739447393 17.5
  endloop
endfacet
facet normal 0.6087614290087209 0.7933533402912349 0.0
  outer loop
    vertex -8.43127014841075 -10.075587421698685 17.5
    vertex -7.050000000000002 -10.99852262806237 12.499999999999996
    vertex -8.43127014841075 -10.075587421698685 12.499999999999996
  endloop
endfacet
facet normal 0.5000000000000006 0.8660254037844384 0.0
  outer loop
    vertex -7.050000000000002 -10.99852262806237 12.499999999999996
    vertex -8.43127014841075 -10.075587421698685 17.5
    vertex -7.050000000000002 -10.99852262806237 17.5
  endloop
endfacet
facet normal 0.5000000000000006 0.8660254037844384 0.0
  outer loop
    vertex -7.050000000000002 -10.99852262806237 17.5
    vertex -5.560079591036643 -11.733270062893341 12.499999999999996
    vertex -7.050000000000002 -10.99852262806237 12.499999999999996
  endloop
endfacet
facet normal 0.38268343236509045 0.9238795325112864 -3.705505682103215e-17
  outer loop
    vertex -5.560079591036643 -11.733270062893341 12.499999999999996
    vertex -7.050000000000002 -10.99852262806237 17.5
    vertex -5.560079591036643 -11.733270062893341 17.5
  endloop
endfacet
facet normal 0.3826834323650903 0.9238795325112865 -3.705505682103224e-17
  outer loop
    vertex -5.560079591036643 -11.733270062893341 17.5
    vertex -3.9870018728020185 -12.267257993871167 12.499999999999996
    vertex -5.560079591036643 -11.733270062893341 12.499999999999996
  endloop
endfacet
facet normal 0.2588190451025215 0.965925826289068 -3.705505682103215e-17
  outer loop
    vertex -3.9870018728020185 -12.267257993871167 12.499999999999996
    vertex -5.560079591036643 -11.733270062893341 17.5
    vertex -3.9870018728020185 -12.267257993871167 17.5
  endloop
endfacet
facet normal 0.2588190451025216 0.9659258262890681 -3.705505682103218e-17
  outer loop
    vertex -3.9870018728020185 -12.267257993871167 17.5
    vertex -5.560079591036643 -11.733270062893341 17.5
    vertex -5.199999999999996 -11.855500613600512 17.5
  endloop
endfacet
facet normal -0.6087614290087199 0.7933533402912358 0.0
  outer loop
    vertex 7.031270148410746 -10.075587421698696 17.5
    vertex 8.280256121069156 -8.980256121069157 12.499999999999996
    vertex 7.031270148410746 -10.075587421698696 12.499999999999996
  endloop
endfacet
facet normal -0.7071067811865472 0.7071067811865478 0.0
  outer loop
    vertex 8.280256121069156 -8.980256121069157 12.499999999999996
    vertex 7.031270148410746 -10.075587421698696 17.5
    vertex 8.280256121069156 -8.980256121069157 17.5
  endloop
endfacet
facet normal -0.793353340291235 0.6087614290087205 0.0
  outer loop
    vertex 9.375587421698688 -7.731270148410758 17.5
    vertex 8.280256121069156 -8.980256121069157 12.499999999999996
    vertex 8.280256121069156 -8.980256121069157 17.5
  endloop
endfacet
facet normal -0.7071067811865472 0.7071067811865478 0.0
  outer loop
    vertex 8.280256121069156 -8.980256121069157 12.499999999999996
    vertex 9.375587421698688 -7.731270148410758 17.5
    vertex 9.375587421698688 -7.731270148410758 12.499999999999996
  endloop
endfacet
facet normal 0.923879532511287 0.38268343236508934 0.0
  outer loop
    vertex -12.433270062893339 -4.8600795910366354 12.499999999999996
    vertex -11.698522628062369 -6.35 17.5
    vertex -11.698522628062369 -6.35 12.499999999999996
  endloop
endfacet
facet normal 0.8660254037844388 0.49999999999999967 0.0
  outer loop
    vertex -11.698522628062369 -6.35 17.5
    vertex -12.433270062893339 -4.8600795910366354 12.499999999999996
    vertex -12.433270062893339 -4.8600795910366354 17.5
  endloop
endfacet
facet normal 0.8660254037844388 0.49999999999999967 0.0
  outer loop
    vertex -11.698522628062369 -6.35 12.499999999999996
    vertex -10.775587421698685 -7.731270148410751 17.5
    vertex -10.775587421698685 -7.731270148410751 12.499999999999996
  endloop
endfacet
facet normal 0.7933533402912354 0.6087614290087204 0.0
  outer loop
    vertex -10.775587421698685 -7.731270148410751 17.5
    vertex -11.698522628062369 -6.35 12.499999999999996
    vertex -11.698522628062369 -6.35 17.5
  endloop
endfacet
facet normal 0.7933533402912354 0.6087614290087204 0.0
  outer loop
    vertex -10.775587421698685 -7.731270148410751 12.499999999999996
    vertex -9.680256121069155 -8.98025612106915 17.5
    vertex -9.680256121069155 -8.98025612106915 12.499999999999996
  endloop
endfacet
facet normal 0.7071067811865478 0.7071067811865472 0.0
  outer loop
    vertex -9.680256121069155 -8.98025612106915 17.5
    vertex -10.775587421698685 -7.731270148410751 12.499999999999996
    vertex -10.775587421698685 -7.731270148410751 17.5
  endloop
endfacet
facet normal -0.8660254037844382 0.5000000000000007 0.0
  outer loop
    vertex 10.29852262806237 -6.3500000000000085 17.5
    vertex 9.375587421698688 -7.731270148410758 12.499999999999996
    vertex 9.375587421698688 -7.731270148410758 17.5
  endloop
endfacet
facet normal -0.793353340291235 0.6087614290087205 0.0
  outer loop
    vertex 9.375587421698688 -7.731270148410758 12.499999999999996
    vertex 10.29852262806237 -6.3500000000000085 17.5
    vertex 10.29852262806237 -6.3500000000000085 12.499999999999996
  endloop
endfacet
facet normal -0.9238795325112864 0.38268343236509045 0.0
  outer loop
    vertex 11.033270062893342 -4.8600795910366505 17.5
    vertex 10.29852262806237 -6.3500000000000085 12.499999999999996
    vertex 10.29852262806237 -6.3500000000000085 17.5
  endloop
endfacet
facet normal -0.8660254037844382 0.5000000000000007 0.0
  outer loop
    vertex 10.29852262806237 -6.3500000000000085 12.499999999999996
    vertex 11.033270062893342 -4.8600795910366505 17.5
    vertex 11.033270062893342 -4.8600795910366505 12.499999999999996
  endloop
endfacet
facet normal -0.9659258262890682 0.2588190451025215 0.0
  outer loop
    vertex 11.567257993871168 -3.287001872802026 17.5
    vertex 11.033270062893342 -4.8600795910366505 12.499999999999996
    vertex 11.033270062893342 -4.8600795910366505 17.5
  endloop
endfacet
facet normal -0.9238795325112864 0.38268343236509045 0.0
  outer loop
    vertex 11.033270062893342 -4.8600795910366505 12.499999999999996
    vertex 11.567257993871168 -3.287001872802026 17.5
    vertex 11.567257993871168 -3.287001872802026 12.499999999999996
  endloop
endfacet
facet normal -4.804805669078165e-32 1.4745767341840524e-15 1.0
  outer loop
    vertex 3.8000000000000043 -15.0 17.500000000000004
    vertex -5.199999999999996 -11.855500613600512 17.5
    vertex -5.199999999999996 -15.0 17.500000000000004
  endloop
endfacet
facet normal -4.804805669078165e-32 1.4745767341840524e-15 1.0
  outer loop
    vertex -5.199999999999996 -11.855500613600512 17.5
    vertex 3.8000000000000043 -15.0 17.500000000000004
    vertex -3.9870018728020185 -12.267257993871167 17.5
  endloop
endfacet
facet normal -4.804805669078165e-32 1.4745767341840524e-15 1.0
  outer loop
    vertex -3.9870018728020185 -12.267257993871167 17.5
    vertex 3.8000000000000043 -15.0 17.500000000000004
    vertex -2.3576826411946628 -12.591349739447393 17.5
  endloop
endfacet
facet normal -4.804805669078165e-32 1.4745767341840524e-15 1.0
  outer loop
    vertex -2.3576826411946628 -12.591349739447393 17.5
    vertex 3.8000000000000043 -15.0 17.500000000000004
    vertex -0.6999999999999982 -12.700000000000003 17.5
  endloop
endfacet
facet normal -4.804805669078165e-32 1.4745767341840524e-15 1.0
  outer loop
    vertex -0.6999999999999982 -12.700000000000003 17.5
    vertex 3.8000000000000043 -15.0 17.500000000000004
    vertex 0.9576826411946547 -12.591349739447395 17.5
  endloop
endfacet
facet normal -4.804805669078165e-32 1.4745767341840524e-15 1.0
  outer loop
    vertex 0.9576826411946547 -12.591349739447395 17.5
    vertex 3.8000000000000043 -15.0 17.500000000000004
    vertex 2.587001872802012 -12.267257993871171 17.5
  endloop
endfacet
facet normal -4.804805669078165e-32 1.4745767341840524e-15 1.0
  outer loop
    vertex 2.587001872802012 -12.267257993871171 17.5
    vertex 3.8000000000000043 -15.0 17.500000000000004
    vertex 3.8000000000000043 -11.855500613600514 17.5
  endloop
endfacet
facet normal 0.0 0.0 -1.0
  outer loop
    vertex -20.699999999999992 19.499999999999993 12.499999999999996
    vertex -12.967257993871161 3.287001872802014 12.499999999999996
    vertex -20.699999999999992 -20.500000000000004 12.499999999999996
  endloop
endfacet
facet normal 0.0 0.0 -1.0
  outer loop
    vertex -12.967257993871161 3.287001872802014 12.499999999999996
    vertex -20.699999999999992 19.499999999999993 12.499999999999996
    vertex -12.433270062893337 4.860079591036638 12.499999999999996
  endloop
endfacet
facet normal 0.0 0.0 -1.0
  outer loop
    vertex -12.433270062893337 4.860079591036638 12.499999999999996
    vertex -20.699999999999992 19.499999999999993 12.499999999999996
    vertex -11.698522628062364 6.350000000000001 12.499999999999996
  endloop
endfacet
facet normal 0.0 0.0 -1.0
  outer loop
    vertex -11.698522628062364 6.350000000000001 12.499999999999996
    vertex -20.699999999999992 19.499999999999993 12.499999999999996
    vertex -10.77558742169868 7.7312701484107516 12.499999999999996
  endloop
endfacet
facet normal 0.0 0.0 -1.0
  outer loop
    vertex -10.77558742169868 7.7312701484107516 12.499999999999996
    vertex -20.699999999999992 19.499999999999993 12.499999999999996
    vertex -9.680256121069148 8.98025612106915 12.499999999999996
  endloop
endfacet
facet normal 0.0 0.0 -1.0
  outer loop
    vertex -9.680256121069148 8.98025612106915 12.499999999999996
    vertex -20.699999999999992 19.499999999999993 12.499999999999996
    vertex -8.431270148410743 10.075587421698685 12.499999999999996
  endloop
endfacet
facet normal 0.0 0.0 -1.0
  outer loop
    vertex -8.431270148410743 10.075587421698685 12.499999999999996
    vertex -20.699999999999992 19.499999999999993 12.499999999999996
    vertex -7.049999999999993 10.99852262806237 12.499999999999996
  endloop
endfacet
facet normal 0.0 0.0 -1.0
  outer loop
    vertex -7.049999999999993 10.99852262806237 12.499999999999996
    vertex -20.699999999999992 19.499999999999993 12.499999999999996
    vertex -5.560079591036632 11.73327006289334 12.499999999999996
  endloop
endfacet
facet normal 0.0 0.0 -1.0
  outer loop
    vertex -5.560079591036632 11.73327006289334 12.499999999999996
    vertex -20.699999999999992 19.499999999999993 12.499999999999996
    vertex -3.987001872802008 12.267257993871164 12.499999999999996
  endloop
endfacet
facet normal 0.0 0.0 -1.0
  outer loop
    vertex -3.987001872802008 12.267257993871164 12.499999999999996
    vertex -20.699999999999992 19.499999999999993 12.499999999999996
    vertex 19.3 19.499999999999993 12.499999999999996
  endloop
endfacet
facet normal 0.0 0.0 -1.0
  outer loop
    vertex -20.699999999999992 -20.500000000000004 12.499999999999996
    vertex -12.967257993871161 3.287001872802014 12.499999999999996
    vertex -13.291349739447385 1.6576826411946572 12.499999999999996
  endloop
endfacet
facet normal 0.0 0.0 -1.0
  outer loop
    vertex -20.699999999999992 -20.500000000000004 12.499999999999996
    vertex -13.291349739447385 1.6576826411946572 12.499999999999996
    vertex -13.399999999999995 -1.264665047630759e-15 12.499999999999996
  endloop
endfacet
facet normal 0.0 0.0 -1.0
  outer loop
    vertex -3.987001872802008 12.267257993871164 12.499999999999996
    vertex 19.3 19.499999999999993 12.499999999999996
    vertex -2.357682641194648 12.59134973944739 12.499999999999996
  endloop
endfacet
facet normal 0.0 0.0 -1.0
  outer loop
    vertex -2.357682641194648 12.59134973944739 12.499999999999996
    vertex 19.3 19.499999999999993 12.499999999999996
    vertex -0.6999999999999951 12.699999999999996 12.499999999999996
  endloop
endfacet
facet normal 0.0 0.0 -1.0
  outer loop
    vertex -0.6999999999999951 12.699999999999996 12.499999999999996
    vertex 19.3 19.499999999999993 12.499999999999996
    vertex 0.9576826411946607 12.591349739447388 12.499999999999996
  endloop
endfacet
facet normal 0.0 0.0 -1.0
  outer loop
    vertex 0.9576826411946607 12.591349739447388 12.499999999999996
    vertex 19.3 19.499999999999993 12.499999999999996
    vertex 2.5870018728020203 12.267257993871162 12.499999999999996
  endloop
endfacet
facet normal 0.0 0.0 -1.0
  outer loop
    vertex 2.5870018728020203 12.267257993871162 12.499999999999996
    vertex 19.3 19.499999999999993 12.499999999999996
    vertex 4.160079591036645 11.733270062893338 12.499999999999996
  endloop
endfacet
facet normal 0.0 0.0 -1.0
  outer loop
    vertex 4.160079591036645 11.733270062893338 12.499999999999996
    vertex 19.3 19.499999999999993 12.499999999999996
    vertex 5.650000000000005 10.998522628062366 12.499999999999996
  endloop
endfacet
facet normal 0.0 0.0 -1.0
  outer loop
    vertex 5.650000000000005 10.998522628062366 12.499999999999996
    vertex 19.3 19.499999999999993 12.499999999999996
    vertex 7.031270148410758 10.075587421698682 12.499999999999996
  endloop
endfacet
facet normal 0.0 0.0 -1.0
  outer loop
    vertex 7.031270148410758 10.075587421698682 12.499999999999996
    vertex 19.3 19.499999999999993 12.499999999999996
    vertex 8.280256121069158 8.98025612106915 12.499999999999996
  endloop
endfacet
facet normal 0.0 0.0 -1.0
  outer loop
    vertex 8.280256121069158 8.98025612106915 12.499999999999996
    vertex 19.3 19.499999999999993 12.499999999999996
    vertex 9.37558742169869 7.731270148410748 12.499999999999996
  endloop
endfacet
facet normal 0.0 0.0 -1.0
  outer loop
    vertex 9.37558742169869 7.731270148410748 12.499999999999996
    vertex 19.3 19.499999999999993 12.499999999999996
    vertex 10.298522628062376 6.349999999999996 12.499999999999996
  endloop
endfacet
facet normal 0.0 0.0 -1.0
  outer loop
    vertex 10.298522628062376 6.349999999999996 12.499999999999996
    vertex 19.3 19.499999999999993 12.499999999999996
    vertex 11.033270062893346 4.860079591036637 12.499999999999996
  endloop
endfacet
facet normal 0.0 0.0 -1.0
  outer loop
    vertex 11.033270062893346 4.860079591036637 12.499999999999996
    vertex 19.3 19.499999999999993 12.499999999999996
    vertex 11.567257993871172 3.2870018728020103 12.499999999999996
  endloop
endfacet
facet normal 0.0 0.0 -1.0
  outer loop
    vertex 11.567257993871172 3.2870018728020103 12.499999999999996
    vertex 19.3 19.499999999999993 12.499999999999996
    vertex 11.891349739447396 1.6576826411946521 12.499999999999996
  endloop
endfacet
facet normal 0.0 0.0 -1.0
  outer loop
    vertex 11.891349739447396 1.6576826411946521 12.499999999999996
    vertex 19.3 19.499999999999993 12.499999999999996
    vertex 12.000000000000004 -2.8199664825478975e-15 12.499999999999996
  endloop
endfacet
facet normal 0.0 0.0 -1.0
  outer loop
    vertex -20.699999999999992 -20.500000000000004 12.499999999999996
    vertex -5.560079591036643 -11.733270062893341 12.499999999999996
    vertex 19.3 -20.500000000000004 12.499999999999996
  endloop
endfacet
facet normal 0.0 0.0 -1.0
  outer loop
    vertex -5.560079591036643 -11.733270062893341 12.499999999999996
    vertex -20.699999999999992 -20.500000000000004 12.499999999999996
    vertex -7.050000000000002 -10.99852262806237 12.499999999999996
  endloop
endfacet
facet normal 0.0 0.0 -1.0
  outer loop
    vertex -7.050000000000002 -10.99852262806237 12.499999999999996
    vertex -20.699999999999992 -20.500000000000004 12.499999999999996
    vertex -8.43127014841075 -10.075587421698685 12.499999999999996
  endloop
endfacet
facet normal 0.0 0.0 -1.0
  outer loop
    vertex -8.43127014841075 -10.075587421698685 12.499999999999996
    vertex -20.699999999999992 -20.500000000000004 12.499999999999996
    vertex -9.680256121069155 -8.98025612106915 12.499999999999996
  endloop
endfacet
facet normal 0.0 0.0 -1.0
  outer loop
    vertex -9.680256121069155 -8.98025612106915 12.499999999999996
    vertex -20.699999999999992 -20.500000000000004 12.499999999999996
    vertex -10.775587421698685 -7.731270148410751 12.499999999999996
  endloop
endfacet
facet normal 0.0 0.0 -1.0
  outer loop
    vertex -10.775587421698685 -7.731270148410751 12.499999999999996
    vertex -20.699999999999992 -20.500000000000004 12.499999999999996
    vertex -11.698522628062369 -6.35 12.499999999999996
  endloop
endfacet
facet normal 0.0 0.0 -1.0
  outer loop
    vertex -11.698522628062369 -6.35 12.499999999999996
    vertex -20.699999999999992 -20.500000000000004 12.499999999999996
    vertex -12.433270062893339 -4.8600795910366354 12.499999999999996
  endloop
endfacet
facet normal 0.0 0.0 -1.0
  outer loop
    vertex -12.433270062893339 -4.8600795910366354 12.499999999999996
    vertex -20.699999999999992 -20.500000000000004 12.499999999999996
    vertex -12.967257993871165 -3.287001872802011 12.499999999999996
  endloop
endfacet
facet normal 0.0 0.0 -1.0
  outer loop
    vertex -12.967257993871165 -3.287001872802011 12.499999999999996
    vertex -20.699999999999992 -20.500000000000004 12.499999999999996
    vertex -13.291349739447389 -1.6576826411946546 12.499999999999996
  endloop
endfacet
facet normal 0.0 0.0 -1.0
  outer loop
    vertex -13.291349739447389 -1.6576826411946546 12.499999999999996
    vertex -20.699999999999992 -20.500000000000004 12.499999999999996
    vertex -13.399999999999995 -1.264665047630759e-15 12.499999999999996
  endloop
endfacet
facet normal 0.0 0.0 -1.0
  outer loop
    vertex 19.3 -20.500000000000004 12.499999999999996
    vertex -5.560079591036643 -11.733270062893341 12.499999999999996
    vertex -3.9870018728020185 -12.267257993871167 12.499999999999996
  endloop
endfacet
facet normal 0.0 0.0 -1.0
  outer loop
    vertex 19.3 -20.500000000000004 12.499999999999996
    vertex -3.9870018728020185 -12.267257993871167 12.499999999999996
    vertex -2.3576826411946628 -12.591349739447393 12.499999999999996
  endloop
endfacet
facet normal 0.0 0.0 -1.0
  outer loop
    vertex 19.3 -20.500000000000004 12.499999999999996
    vertex -2.3576826411946628 -12.591349739447393 12.499999999999996
    vertex -0.6999999999999982 -12.700000000000003 12.499999999999996
  endloop
endfacet
facet normal 0.0 0.0 -1.0
  outer loop
    vertex 19.3 -20.500000000000004 12.499999999999996
    vertex -0.6999999999999982 -12.700000000000003 12.499999999999996
    vertex 0.9576826411946547 -12.591349739447395 12.499999999999996
  endloop
endfacet
facet normal 0.0 0.0 -1.0
  outer loop
    vertex 19.3 -20.500000000000004 12.499999999999996
    vertex 0.9576826411946547 -12.591349739447395 12.499999999999996
    vertex 2.587001872802012 -12.267257993871171 12.499999999999996
  endloop
endfacet
facet normal 0.0 0.0 -1.0
  outer loop
    vertex 19.3 -20.500000000000004 12.499999999999996
    vertex 2.587001872802012 -12.267257993871171 12.499999999999996
    vertex 4.160079591036636 -11.733270062893347 12.499999999999996
  endloop
endfacet
facet normal 0.0 0.0 -1.0
  outer loop
    vertex 19.3 -20.500000000000004 12.499999999999996
    vertex 4.160079591036636 -11.733270062893347 12.499999999999996
    vertex 5.649999999999995 -10.998522628062378 12.499999999999996
  endloop
endfacet
facet normal 0.0 0.0 -1.0
  outer loop
    vertex 19.3 -20.500000000000004 12.499999999999996
    vertex 5.649999999999995 -10.998522628062378 12.499999999999996
    vertex 7.031270148410746 -10.075587421698696 12.499999999999996
  endloop
endfacet
facet normal 0.0 0.0 -1.0
  outer loop
    vertex 19.3 -20.500000000000004 12.499999999999996
    vertex 7.031270148410746 -10.075587421698696 12.499999999999996
    vertex 8.280256121069156 -8.980256121069157 12.499999999999996
  endloop
endfacet
facet normal 0.0 0.0 -1.0
  outer loop
    vertex 19.3 -20.500000000000004 12.499999999999996
    vertex 8.280256121069156 -8.980256121069157 12.499999999999996
    vertex 9.375587421698688 -7.731270148410758 12.499999999999996
  endloop
endfacet
facet normal 0.0 0.0 -1.0
  outer loop
    vertex 19.3 -20.500000000000004 12.499999999999996
    vertex 9.375587421698688 -7.731270148410758 12.499999999999996
    vertex 10.29852262806237 -6.3500000000000085 12.499999999999996
  endloop
endfacet
facet normal 0.0 0.0 -1.0
  outer loop
    vertex 19.3 -20.500000000000004 12.499999999999996
    vertex 10.29852262806237 -6.3500000000000085 12.499999999999996
    vertex 11.033270062893342 -4.8600795910366505 12.499999999999996
  endloop
endfacet
facet normal 0.0 0.0 -1.0
  outer loop
    vertex 19.3 -20.500000000000004 12.499999999999996
    vertex 11.033270062893342 -4.8600795910366505 12.499999999999996
    vertex 11.567257993871168 -3.287001872802026 12.499999999999996
  endloop
endfacet
facet normal 0.0 0.0 -1.0
  outer loop
    vertex 19.3 -20.500000000000004 12.499999999999996
    vertex 11.567257993871168 -3.287001872802026 12.499999999999996
    vertex 11.891349739447394 -1.6576826411946703 12.499999999999996
  endloop
endfacet
facet normal 0.0 0.0 -1.0
  outer loop
    vertex 19.3 -20.500000000000004 12.499999999999996
    vertex 11.891349739447394 -1.6576826411946703 12.499999999999996
    vertex 12.000000000000004 -2.8199664825478975e-15 12.499999999999996
  endloop
endfacet
facet normal 0.0 0.0 -1.0
  outer loop
    vertex 19.3 -20.500000000000004 12.499999999999996
    vertex 12.000000000000004 -2.8199664825478975e-15 12.499999999999996
    vertex 19.3 19.499999999999993 12.499999999999996
  endloop
endfacet
facet normal 0.9914448613738105 0.1305261922200512 0.0
  outer loop
    vertex -13.291349739447389 -1.6576826411946546 12.499999999999996
    vertex -12.967257993871165 -3.287001872802011 17.5
    vertex -12.967257993871165 -3.287001872802011 12.499999999999996
  endloop
endfacet
facet normal 0.9659258262890684 0.2588190451025207 0.0
  outer loop
    vertex -12.967257993871165 -3.287001872802011 17.5
    vertex -13.291349739447389 -1.6576826411946546 12.499999999999996
    vertex -13.291349739447389 -1.6576826411946546 17.5
  endloop
endfacet
facet normal -0.38268343236508917 0.923879532511287 -2.6851490450023276e-18
  outer loop
    vertex 4.160079591036636 -11.733270062893347 17.5
    vertex 5.649999999999995 -10.998522628062378 12.499999999999996
    vertex 4.160079591036636 -11.733270062893347 12.499999999999996
  endloop
endfacet
facet normal -0.4999999999999993 0.8660254037844392 0.0
  outer loop
    vertex 5.649999999999995 -10.998522628062378 12.499999999999996
    vertex 4.160079591036636 -11.733270062893347 17.5
    vertex 5.649999999999995 -10.998522628062378 17.5
  endloop
endfacet
facet normal -0.4999999999999993 0.8660254037844392 0.0
  outer loop
    vertex 5.649999999999995 -10.998522628062378 17.5
    vertex 7.031270148410746 -10.075587421698696 12.499999999999996
    vertex 5.649999999999995 -10.998522628062378 12.499999999999996
  endloop
endfacet
facet normal -0.6087614290087199 0.7933533402912358 0.0
  outer loop
    vertex 7.031270148410746 -10.075587421698696 12.499999999999996
    vertex 5.649999999999995 -10.998522628062378 17.5
    vertex 7.031270148410746 -10.075587421698696 17.5
  endloop
endfacet
facet normal 0.9659258262890684 0.2588190451025207 0.0
  outer loop
    vertex -12.967257993871165 -3.287001872802011 12.499999999999996
    vertex -12.433270062893339 -4.8600795910366354 17.5
    vertex -12.433270062893339 -4.8600795910366354 12.499999999999996
  endloop
endfacet
facet normal 0.923879532511287 0.38268343236508934 0.0
  outer loop
    vertex -12.433270062893339 -4.8600795910366354 17.5
    vertex -12.967257993871165 -3.287001872802011 12.499999999999996
    vertex -12.967257993871165 -3.287001872802011 17.5
  endloop
endfacet
facet normal 0.1305261922200523 0.9914448613738103 0.0
  outer loop
    vertex -2.3576826411946628 -12.591349739447393 17.5
    vertex -0.6999999999999982 -12.700000000000003 12.499999999999996
    vertex -2.3576826411946628 -12.591349739447393 12.499999999999996
  endloop
endfacet
facet normal 6.10914328418956e-16 0.9999999999999999 0.0
  outer loop
    vertex -0.6999999999999982 -12.700000000000003 12.499999999999996
    vertex -2.3576826411946628 -12.591349739447393 17.5
    vertex -0.6999999999999982 -12.700000000000003 17.5
  endloop
endfacet
facet normal 6.10914328418956e-16 0.9999999999999999 0.0
  outer loop
    vertex -0.6999999999999982 -12.700000000000003 17.5
    vertex 0.9576826411946547 -12.591349739447395 12.499999999999996
    vertex -0.6999999999999982 -12.700000000000003 12.499999999999996
  endloop
endfacet
facet normal -0.13052619222005118 0.9914448613738104 0.0
  outer loop
    vertex 0.9576826411946547 -12.591349739447395 12.499999999999996
    vertex -0.6999999999999982 -12.700000000000003 17.5
    vertex 0.9576826411946547 -12.591349739447395 17.5
  endloop
endfacet
facet normal -0.9999999999999999 1.7264970150970495e-16 0.0
  outer loop
    vertex 12.000000000000004 -2.8199664825478975e-15 17.5
    vertex 11.891349739447394 -1.6576826411946703 12.499999999999996
    vertex 11.891349739447394 -1.6576826411946703 17.5
  endloop
endfacet
facet normal -0.9914448613738103 0.13052619222005224 0.0
  outer loop
    vertex 11.891349739447394 -1.6576826411946703 12.499999999999996
    vertex 12.000000000000004 -2.8199664825478975e-15 17.5
    vertex 12.000000000000004 -2.8199664825478975e-15 12.499999999999996
  endloop
endfacet
facet normal 0.9659258262890682 -0.2588190451025207 0.0
  outer loop
    vertex -12.967257993871161 3.287001872802014 12.499999999999996
    vertex -13.291349739447385 1.6576826411946572 17.5
    vertex -13.291349739447385 1.6576826411946572 12.499999999999996
  endloop
endfacet
facet normal 0.9914448613738104 -0.13052619222005196 0.0
  outer loop
    vertex -13.291349739447385 1.6576826411946572 17.5
    vertex -12.967257993871161 3.287001872802014 12.499999999999996
    vertex -12.967257993871161 3.287001872802014 17.5
  endloop
endfacet
facet normal -0.25881904510252085 -0.9659258262890682 0.0
  outer loop
    vertex 2.5870018728020203 12.267257993871162 17.999999999999996
    vertex 0.9576826411946607 12.591349739447388 12.499999999999996
    vertex 2.5870018728020203 12.267257993871162 12.499999999999996
  endloop
endfacet
facet normal -0.13052619222005185 -0.9914448613738104 0.0
  outer loop
    vertex 0.9576826411946607 12.591349739447388 12.499999999999996
    vertex 2.5870018728020203 12.267257993871162 17.999999999999996
    vertex 0.9576826411946607 12.591349739447388 17.999999999999996
  endloop
endfacet
facet normal -0.13052619222005185 -0.9914448613738104 0.0
  outer loop
    vertex 0.9576826411946607 12.591349739447388 17.999999999999996
    vertex -0.6999999999999951 12.699999999999996 12.499999999999996
    vertex 0.9576826411946607 12.591349739447388 12.499999999999996
  endloop
endfacet
facet normal -3.6300706471271297e-16 -1.0 0.0
  outer loop
    vertex -0.6999999999999951 12.699999999999996 12.499999999999996
    vertex 0.9576826411946607 12.591349739447388 17.999999999999996
    vertex -0.6999999999999951 12.699999999999996 17.999999999999996
  endloop
endfacet
facet normal -3.6300706471271297e-16 -1.0 0.0
  outer loop
    vertex -0.6999999999999951 12.699999999999996 17.999999999999996
    vertex -2.357682641194648 12.59134973944739 12.499999999999996
    vertex -0.6999999999999951 12.699999999999996 12.499999999999996
  endloop
endfacet
facet normal 0.13052619222005146 -0.9914448613738105 0.0
  outer loop
    vertex -2.357682641194648 12.59134973944739 12.499999999999996
    vertex -0.6999999999999951 12.699999999999996 17.999999999999996
    vertex -2.357682641194648 12.59134973944739 17.999999999999996
  endloop
endfacet
facet normal -0.9914448613738104 -0.1305261922200515 0.0
  outer loop
    vertex 11.891349739447396 1.6576826411946521 17.5
    vertex 12.000000000000004 -2.8199664825478975e-15 12.499999999999996
    vertex 12.000000000000004 -2.8199664825478975e-15 17.5
  endloop
endfacet
facet normal -0.9999999999999999 1.7264970150970495e-16 0.0
  outer loop
    vertex 12.000000000000004 -2.8199664825478975e-15 12.499999999999996
    vertex 11.891349739447396 1.6576826411946521 17.5
    vertex 11.891349739447396 1.6576826411946521 12.499999999999996
  endloop
endfacet
facet normal -0.9659258262890682 -0.2588190451025207 0.0
  outer loop
    vertex 11.567257993871172 3.2870018728020103 17.5
    vertex 11.891349739447396 1.6576826411946521 12.499999999999996
    vertex 11.891349739447396 1.6576826411946521 17.5
  endloop
endfacet
facet normal -0.9914448613738104 -0.1305261922200515 0.0
  outer loop
    vertex 11.891349739447396 1.6576826411946521 12.499999999999996
    vertex 11.567257993871172 3.2870018728020103 17.5
    vertex 11.567257993871172 3.2870018728020103 12.499999999999996
  endloop
endfacet
facet normal -0.9238795325112868 -0.3826834323650898 0.0
  outer loop
    vertex 11.033270062893346 4.860079591036637 17.5
    vertex 11.567257993871172 3.2870018728020103 12.499999999999996
    vertex 11.567257993871172 3.2870018728020103 17.5
  endloop
endfacet
facet normal -0.9659258262890682 -0.2588190451025207 0.0
  outer loop
    vertex 11.567257993871172 3.2870018728020103 12.499999999999996
    vertex 11.033270062893346 4.860079591036637 17.5
    vertex 11.033270062893346 4.860079591036637 12.499999999999996
  endloop
endfacet
facet normal -0.8660254037844385 -0.5000000000000001 0.0
  outer loop
    vertex 10.298522628062376 6.349999999999996 17.5
    vertex 11.033270062893346 4.860079591036637 12.499999999999996
    vertex 11.033270062893346 4.860079591036637 17.5
  endloop
endfacet
facet normal -0.9238795325112868 -0.3826834323650898 0.0
  outer loop
    vertex 11.033270062893346 4.860079591036637 12.499999999999996
    vertex 10.298522628062376 6.349999999999996 17.5
    vertex 10.298522628062376 6.349999999999996 12.499999999999996
  endloop
endfacet
facet normal -0.793353340291235 -0.6087614290087207 0.0
  outer loop
    vertex 9.37558742169869 7.731270148410748 17.5
    vertex 10.298522628062376 6.349999999999996 12.499999999999996
    vertex 10.298522628062376 6.349999999999996 17.5
  endloop
endfacet
facet normal -0.8660254037844385 -0.5000000000000001 0.0
  outer loop
    vertex 10.298522628062376 6.349999999999996 12.499999999999996
    vertex 9.37558742169869 7.731270148410748 17.5
    vertex 9.37558742169869 7.731270148410748 12.499999999999996
  endloop
endfacet
facet normal -0.7071067811865477 -0.7071067811865474 0.0
  outer loop
    vertex 8.280256121069158 8.98025612106915 17.5
    vertex 9.37558742169869 7.731270148410748 12.499999999999996
    vertex 9.37558742169869 7.731270148410748 17.5
  endloop
endfacet
facet normal -0.793353340291235 -0.6087614290087207 0.0
  outer loop
    vertex 9.37558742169869 7.731270148410748 12.499999999999996
    vertex 8.280256121069158 8.98025612106915 17.5
    vertex 8.280256121069158 8.98025612106915 12.499999999999996
  endloop
endfacet
facet normal -0.7071067811865477 -0.7071067811865474 0.0
  outer loop
    vertex 8.280256121069158 8.98025612106915 17.5
    vertex 7.031270148410758 10.075587421698682 12.499999999999996
    vertex 8.280256121069158 8.98025612106915 12.499999999999996
  endloop
endfacet
facet normal -0.6087614290087208 -0.793353340291235 0.0
  outer loop
    vertex 7.031270148410758 10.075587421698682 12.499999999999996
    vertex 8.280256121069158 8.98025612106915 17.5
    vertex 7.031270148410758 10.075587421698682 17.5
  endloop
endfacet
facet normal -0.6087614290087208 -0.793353340291235 0.0
  outer loop
    vertex 7.031270148410758 10.075587421698682 17.5
    vertex 5.650000000000005 10.998522628062366 12.499999999999996
    vertex 7.031270148410758 10.075587421698682 12.499999999999996
  endloop
endfacet
facet normal -0.5000000000000001 -0.8660254037844385 0.0
  outer loop
    vertex 5.650000000000005 10.998522628062366 12.499999999999996
    vertex 7.031270148410758 10.075587421698682 17.5
    vertex 5.650000000000005 10.998522628062366 17.5
  endloop
endfacet
facet normal -0.5000000000000001 -0.8660254037844385 0.0
  outer loop
    vertex 5.650000000000005 10.998522628062366 17.5
    vertex 4.160079591036645 11.733270062893338 12.499999999999996
    vertex 5.650000000000005 10.998522628062366 12.499999999999996
  endloop
endfacet
facet normal -0.3826834323650898 -0.9238795325112868 0.0
  outer loop
    vertex 4.160079591036645 11.733270062893338 12.499999999999996
    vertex 5.650000000000005 10.998522628062366 17.5
    vertex 4.160079591036645 11.733270062893338 17.5
  endloop
endfacet
facet normal -0.8944271909999164 0.0 -0.44721359549995693
  outer loop
    vertex 12.300000000000002 9.5 25.0
    vertex 13.3 -20.500000000000004 22.999999999999996
    vertex 12.300000000000002 -20.500000000000004 25.0
  endloop
endfacet
facet normal -0.8944271909999164 0.0 -0.44721359549995693
  outer loop
    vertex 13.3 -20.500000000000004 22.999999999999996
    vertex 12.300000000000002 9.5 25.0
    vertex 13.3 9.5 22.999999999999996
  endloop
endfacet
facet normal 1.0 -0.0 -0.0
  outer loop
    vertex -13.699999999999994 9.5 19.999999999999996
    vertex -13.699999999999994 -15.500000000000002 22.999999999999996
    vertex -13.699999999999994 -15.500000000000002 19.999999999999996
  endloop
endfacet
facet normal 1.0 -0.0 -0.0
  outer loop
    vertex -13.699999999999994 -15.500000000000002 22.999999999999996
    vertex -13.699999999999994 9.5 19.999999999999996
    vertex -13.699999999999994 9.5 22.999999999999996
  endloop
endfacet
facet normal 0.0 -1.0 0.0
  outer loop
    vertex 12.300000000000002 9.5 25.0
    vertex 12.300000000000002 9.5 22.999999999999996
    vertex 13.3 9.5 22.999999999999996
  endloop
endfacet
facet normal 0.0 -1.0 0.0
  outer loop
    vertex 12.300000000000002 9.5 19.999999999999996
    vertex 7.800000000000005 9.5 20.999999999999996
    vertex -13.699999999999994 9.5 19.999999999999996
  endloop
endfacet
facet normal 0.0 -1.0 0.0
  outer loop
    vertex 7.800000000000005 9.5 20.999999999999996
    vertex 12.300000000000002 9.5 19.999999999999996
    vertex 12.300000000000002 9.5 22.999999999999996
  endloop
endfacet
facet normal 0.0 -1.0 0.0
  outer loop
    vertex 7.800000000000005 9.5 20.999999999999996
    vertex 12.300000000000002 9.5 22.999999999999996
    vertex 7.800000000000005 9.5 25.0
  endloop
endfacet
facet normal 0.0 -1.0 0.0
  outer loop
    vertex 7.800000000000005 9.5 25.0
    vertex 12.300000000000002 9.5 22.999999999999996
    vertex 12.300000000000002 9.5 25.0
  endloop
endfacet
facet normal 0.0 -1.0 0.0
  outer loop
    vertex -13.699999999999994 9.5 19.999999999999996
    vertex -9.199999999999996 9.5 20.999999999999996
    vertex -13.699999999999994 9.5 22.999999999999996
  endloop
endfacet
facet normal 0.0 -1.0 0.0
  outer loop
    vertex -9.199999999999996 9.5 20.999999999999996
    vertex -13.699999999999994 9.5 19.999999999999996
    vertex 7.800000000000005 9.5 20.999999999999996
  endloop
endfacet
facet normal 0.0 -1.0 0.0
  outer loop
    vertex -13.699999999999994 9.5 22.999999999999996
    vertex -9.199999999999996 9.5 20.999999999999996
    vertex -9.199999999999996 9.5 25.0
  endloop
endfacet
facet normal 0.0 -1.0 0.0
  outer loop
    vertex -13.699999999999994 9.5 22.999999999999996
    vertex -9.199999999999996 9.5 25.0
    vertex -13.699999999999994 9.5 25.0
  endloop
endfacet
facet normal 1.0 -0.0 -0.0
  outer loop
    vertex -5.199999999999996 -11.855500613600512 17.5
    vertex -5.199999999999996 -15.0 19.999999999999996
    vertex -5.199999999999996 -15.0 17.500000000000004
  endloop
endfacet
facet normal 1.0 -0.0 -0.0
  outer loop
    vertex -5.199999999999996 -15.0 19.999999999999996
    vertex -5.199999999999996 -11.855500613600512 17.5
    vertex -5.199999999999996 4.499999999999997 19.999999999999996
  endloop
endfacet
facet normal 1.0 -0.0 -0.0
  outer loop
    vertex -5.199999999999996 4.499999999999997 19.999999999999996
    vertex -5.199999999999996 -11.855500613600512 17.5
    vertex -5.199999999999996 4.499999999999997 17.5
  endloop
endfacet
facet normal 1.0 -0.0 -0.0
  outer loop
    vertex -5.199999999999996 4.499999999999997 19.999999999999996
    vertex -5.199999999999996 4.499999999999997 17.5
    vertex -5.199999999999996 4.499999999999997 17.999999999999996
  endloop
endfacet
facet normal -0.0 -0.0 1.0
  outer loop
    vertex -13.699999999999994 -15.500000000000002 19.999999999999996
    vertex -5.199999999999996 -15.0 19.999999999999996
    vertex -13.699999999999994 9.5 19.999999999999996
  endloop
endfacet
facet normal -0.0 -0.0 1.0
  outer loop
    vertex -5.199999999999996 -15.0 19.999999999999996
    vertex -13.699999999999994 -15.500000000000002 19.999999999999996
    vertex 12.300000000000002 -15.500000000000002 19.999999999999996
  endloop
endfacet
facet normal -0.0 -0.0 1.0
  outer loop
    vertex -5.199999999999996 -15.0 19.999999999999996
    vertex 12.300000000000002 -15.500000000000002 19.999999999999996
    vertex 3.8000000000000043 -15.0 19.999999999999996
  endloop
endfacet
facet normal -0.0 -0.0 1.0
  outer loop
    vertex 3.8000000000000043 -15.0 19.999999999999996
    vertex 12.300000000000002 -15.500000000000002 19.999999999999996
    vertex 4.800000000000004 -15.0 19.999999999999996
  endloop
endfacet
facet normal -0.0 -0.0 1.0
  outer loop
    vertex 3.8000000000000043 -15.0 19.999999999999996
    vertex 4.800000000000004 -15.0 19.999999999999996
    vertex 3.8000000000000043 4.499999999999997 19.999999999999996
  endloop
endfacet
facet normal -0.0 -0.0 1.0
  outer loop
    vertex 4.800000000000004 -15.0 19.999999999999996
    vertex 12.300000000000002 -15.500000000000002 19.999999999999996
    vertex 10.168396000000003 -15.0 19.999999999999996
  endloop
endfacet
facet normal -0.0 -0.0 1.0
  outer loop
    vertex 10.168396000000003 -15.0 19.999999999999996
    vertex 12.300000000000002 -15.500000000000002 19.999999999999996
    vertex 10.168396000000003 -8.999999999999998 19.999999999999996
  endloop
endfacet
facet normal -0.0 -0.0 1.0
  outer loop
    vertex -13.699999999999994 9.5 19.999999999999996
    vertex -5.199999999999996 4.499999999999997 19.999999999999996
    vertex 12.300000000000002 9.5 19.999999999999996
  endloop
endfacet
facet normal -0.0 -0.0 1.0
  outer loop
    vertex -5.199999999999996 4.499999999999997 19.999999999999996
    vertex -13.699999999999994 9.5 19.999999999999996
    vertex -5.199999999999996 -15.0 19.999999999999996
  endloop
endfacet
facet normal -0.0 -0.0 1.0
  outer loop
    vertex 12.300000000000002 9.5 19.999999999999996
    vertex -5.199999999999996 4.499999999999997 19.999999999999996
    vertex 3.8000000000000043 4.499999999999997 19.999999999999996
  endloop
endfacet
facet normal -0.0 -0.0 1.0
  outer loop
    vertex 12.300000000000002 9.5 19.999999999999996
    vertex 3.8000000000000043 4.499999999999997 19.999999999999996
    vertex 4.800000000000004 -9.0 19.999999999999996
  endloop
endfacet
facet normal -0.0 -0.0 1.0
  outer loop
    vertex 4.800000000000004 -9.0 19.999999999999996
    vertex 3.8000000000000043 4.499999999999997 19.999999999999996
    vertex 4.800000000000004 -15.0 19.999999999999996
  endloop
endfacet
facet normal -0.0 -0.0 1.0
  outer loop
    vertex 12.300000000000002 9.5 19.999999999999996
    vertex 4.800000000000004 -9.0 19.999999999999996
    vertex 10.168396000000003 -8.999999999999998 19.999999999999996
  endloop
endfacet
facet normal -0.0 -0.0 1.0
  outer loop
    vertex 12.300000000000002 9.5 19.999999999999996
    vertex 10.168396000000003 -8.999999999999998 19.999999999999996
    vertex 12.300000000000002 -15.500000000000002 19.999999999999996
  endloop
endfacet
facet normal 1.0 -0.0 -0.0
  outer loop
    vertex -9.199999999999996 19.499999999999993 20.999999999999996
    vertex -9.199999999999996 9.5 25.0
    vertex -9.199999999999996 9.5 20.999999999999996
  endloop
endfacet
facet normal 1.0 -0.0 -0.0
  outer loop
    vertex -9.199999999999996 9.5 25.0
    vertex -9.199999999999996 19.499999999999993 20.999999999999996
    vertex -9.199999999999996 19.499999999999993 25.0
  endloop
endfacet
facet normal -0.0 1.0 -0.0
  outer loop
    vertex -13.699999999999994 -15.500000000000002 22.999999999999996
    vertex 12.300000000000002 -15.500000000000002 19.999999999999996
    vertex -13.699999999999994 -15.500000000000002 19.999999999999996
  endloop
endfacet
facet normal -0.0 1.0 -0.0
  outer loop
    vertex 12.300000000000002 -15.500000000000002 19.999999999999996
    vertex -13.699999999999994 -15.500000000000002 22.999999999999996
    vertex 12.300000000000002 -15.500000000000002 22.999999999999996
  endloop
endfacet
facet normal 0.0 -1.0 0.0
  outer loop
    vertex 3.8000000000000043 4.499999999999997 19.999999999999996
    vertex -5.199999999999996 4.499999999999997 17.999999999999996
    vertex 3.8000000000000043 4.499999999999997 17.999999999999996
  endloop
endfacet
facet normal 0.0 -1.0 0.0
  outer loop
    vertex -5.199999999999996 4.499999999999997 17.999999999999996
    vertex 3.8000000000000043 4.499999999999997 19.999999999999996
    vertex -5.199999999999996 4.499999999999997 19.999999999999996
  endloop
endfacet
facet normal -1.0 0.0 0.0
  outer loop
    vertex 3.8000000000000043 4.499999999999997 19.999999999999996
    vertex 3.8000000000000043 -15.0 17.500000000000004
    vertex 3.8000000000000043 -15.0 19.999999999999996
  endloop
endfacet
facet normal -1.0 0.0 0.0
  outer loop
    vertex 3.8000000000000043 -15.0 17.500000000000004
    vertex 3.8000000000000043 4.499999999999997 19.999999999999996
    vertex 3.8000000000000043 -11.855500613600514 17.5
  endloop
endfacet
facet normal -1.0 0.0 0.0
  outer loop
    vertex 3.8000000000000043 -11.855500613600514 17.5
    vertex 3.8000000000000043 4.499999999999997 19.999999999999996
    vertex 3.8000000000000043 4.499999999999997 17.5
  endloop
endfacet
facet normal -1.0 0.0 0.0
  outer loop
    vertex 3.8000000000000043 4.499999999999997 17.5
    vertex 3.8000000000000043 4.499999999999997 19.999999999999996
    vertex 3.8000000000000043 4.499999999999997 17.999999999999996
  endloop
endfacet
facet normal 0.0 -1.0 0.0
  outer loop
    vertex -13.699999999999994 9.5 25.0
    vertex -14.699999999999996 9.5 22.999999999999996
    vertex -13.699999999999994 9.5 22.999999999999996
  endloop
endfacet
facet normal -0.0 -0.0 1.0
  outer loop
    vertex -13.699999999999994 -20.500000000000004 25.0
    vertex -20.699999999999992 19.499999999999993 25.0
    vertex -20.699999999999992 -20.500000000000004 25.0
  endloop
endfacet
facet normal -0.0 -0.0 1.0
  outer loop
    vertex -20.699999999999992 19.499999999999993 25.0
    vertex -13.699999999999994 -20.500000000000004 25.0
    vertex -13.699999999999994 9.5 25.0
  endloop
endfacet
facet normal -0.0 -0.0 1.0
  outer loop
    vertex -20.699999999999992 19.499999999999993 25.0
    vertex -13.699999999999994 9.5 25.0
    vertex -9.199999999999996 19.499999999999993 25.0
  endloop
endfacet
facet normal -0.0 -0.0 1.0
  outer loop
    vertex -9.199999999999996 19.499999999999993 25.0
    vertex -13.699999999999994 9.5 25.0
    vertex -9.199999999999996 9.5 25.0
  endloop
endfacet
facet normal 0.0 -1.0 0.0
  outer loop
    vertex -20.699999999999992 -20.500000000000004 12.499999999999996
    vertex -14.699999999999996 -20.500000000000004 22.999999999999996
    vertex -20.699999999999992 -20.500000000000004 25.0
  endloop
endfacet
facet normal 0.0 -1.0 0.0
  outer loop
    vertex -14.699999999999996 -20.500000000000004 22.999999999999996
    vertex -20.699999999999992 -20.500000000000004 12.499999999999996
    vertex 13.3 -20.500000000000004 22.999999999999996
  endloop
endfacet
facet normal 0.0 -1.0 0.0
  outer loop
    vertex -20.699999999999992 -20.500000000000004 25.0
    vertex -14.699999999999996 -20.500000000000004 22.999999999999996
    vertex -13.699999999999994 -20.500000000000004 25.0
  endloop
endfacet
facet normal 0.0 -1.0 0.0
  outer loop
    vertex 19.3 -20.500000000000004 12.499999999999996
    vertex 13.3 -20.500000000000004 22.999999999999996
    vertex -20.699999999999992 -20.500000000000004 12.499999999999996
  endloop
endfacet
facet normal 0.0 -1.0 0.0
  outer loop
    vertex 13.3 -20.500000000000004 22.999999999999996
    vertex 19.3 -20.500000000000004 12.499999999999996
    vertex 19.3 -20.500000000000004 25.0
  endloop
endfacet
facet normal 0.0 -1.0 0.0
  outer loop
    vertex 13.3 -20.500000000000004 22.999999999999996
    vertex 19.3 -20.500000000000004 25.0
    vertex 12.300000000000002 -20.500000000000004 25.0
  endloop
endfacet
facet normal -0.0 -0.0 1.0
  outer loop
    vertex -14.699999999999996 -20.500000000000004 22.999999999999996
    vertex -13.699999999999994 -15.500000000000002 22.999999999999996
    vertex -14.699999999999996 9.5 22.999999999999996
  endloop
endfacet
facet normal -0.0 -0.0 1.0
  outer loop
    vertex -13.699999999999994 -15.500000000000002 22.999999999999996
    vertex -14.699999999999996 -20.500000000000004 22.999999999999996
    vertex 13.3 -20.500000000000004 22.999999999999996
  endloop
endfacet
facet normal -0.0 -0.0 1.0
  outer loop
    vertex -13.699999999999994 -15.500000000000002 22.999999999999996
    vertex 13.3 -20.500000000000004 22.999999999999996
    vertex 12.300000000000002 -15.500000000000002 22.999999999999996
  endloop
endfacet
facet normal -0.0 -0.0 1.0
  outer loop
    vertex 12.300000000000002 -15.500000000000002 22.999999999999996
    vertex 13.3 -20.500000000000004 22.999999999999996
    vertex 12.300000000000002 9.5 22.999999999999996
  endloop
endfacet
facet normal -0.0 -0.0 1.0
  outer loop
    vertex 12.300000000000002 9.5 22.999999999999996
    vertex 13.3 -20.500000000000004 22.999999999999996
    vertex 13.3 9.5 22.999999999999996
  endloop
endfacet
facet normal -0.0 -0.0 1.0
  outer loop
    vertex -13.699999999999994 9.5 22.999999999999996
    vertex -14.699999999999996 9.5 22.999999999999996
    vertex -13.699999999999994 -15.500000000000002 22.999999999999996
  endloop
endfacet
facet normal -0.0 1.0 -0.0
  outer loop
    vertex -20.699999999999992 19.499999999999993 12.499999999999996
    vertex -9.199999999999996 19.499999999999993 20.999999999999996
    vertex 19.3 19.499999999999993 12.499999999999996
  endloop
endfacet
facet normal -0.0 1.0 -0.0
  outer loop
    vertex -9.199999999999996 19.499999999999993 20.999999999999996
    vertex -20.699999999999992 19.499999999999993 12.499999999999996
    vertex -20.699999999999992 19.499999999999993 25.0
  endloop
endfacet
facet normal -0.0 1.0 -0.0
  outer loop
    vertex -9.199999999999996 19.499999999999993 20.999999999999996
    vertex -20.699999999999992 19.499999999999993 25.0
    vertex -9.199999999999996 19.499999999999993 25.0
  endloop
endfacet
facet normal -0.0 1.0 -0.0
  outer loop
    vertex 19.3 19.499999999999993 12.499999999999996
    vertex 7.800000000000005 19.499999999999993 20.999999999999996
    vertex 19.3 19.499999999999993 25.0
  endloop
endfacet
facet normal -0.0 1.0 -0.0
  outer loop
    vertex 7.800000000000005 19.499999999999993 20.999999999999996
    vertex 19.3 19.499999999999993 12.499999999999996
    vertex -9.199999999999996 19.499999999999993 20.999999999999996
  endloop
endfacet
facet normal -0.0 1.0 -0.0
  outer loop
    vertex 19.3 19.499999999999993 25.0
    vertex 7.800000000000005 19.499999999999993 20.999999999999996
    vertex 7.800000000000005 19.499999999999993 25.0
  endloop
endfacet
facet normal 0.8944271909999161 0.0 -0.44721359549995804
  outer loop
    vertex -14.699999999999996 9.5 22.999999999999996
    vertex -13.699999999999994 -20.500000000000004 25.0
    vertex -14.699999999999996 -20.500000000000004 22.999999999999996
  endloop
endfacet
facet normal 1.0 -0.0 -0.0
  outer loop
    vertex 19.3 19.499999999999993 12.499999999999996
    vertex 19.3 -20.500000000000004 25.0
    vertex 19.3 -20.500000000000004 12.499999999999996
  endloop
endfacet
facet normal 1.0 -0.0 -0.0
  outer loop
    vertex 19.3 -20.500000000000004 25.0
    vertex 19.3 19.499999999999993 12.499999999999996
    vertex 19.3 19.499999999999993 25.0
  endloop
endfacet
facet normal -1.0 0.0 0.0
  outer loop
    vertex 7.800000000000005 19.499999999999993 25.0
    vertex 7.800000000000005 9.5 20.999999999999996
    vertex 7.800000000000005 9.5 25.0
  endloop
endfacet
facet normal -1.0 0.0 0.0
  outer loop
    vertex 7.800000000000005 9.5 20.999999999999996
    vertex 7.800000000000005 19.499999999999993 25.0
    vertex 7.800000000000005 19.499999999999993 20.999999999999996
  endloop
endfacet
facet normal -0.0 -0.0 1.0
  outer loop
    vertex 19.3 -20.500000000000004 25.0
    vertex 12.300000000000002 9.5 25.0
    vertex 12.300000000000002 -20.500000000000004 25.0
  endloop
endfacet
facet normal -0.0 -0.0 1.0
  outer loop
    vertex 12.300000000000002 9.5 25.0
    vertex 7.800000000000005 19.499999999999993 25.0
    vertex 7.800000000000005 9.5 25.0
  endloop
endfacet
facet normal -0.0 -0.0 1.0
  outer loop
    vertex 7.800000000000005 19.499999999999993 25.0
    vertex 12.300000000000002 9.5 25.0
    vertex 19.3 19.499999999999993 25.0
  endloop
endfacet
facet normal -0.0 -0.0 1.0
  outer loop
    vertex 19.3 19.499999999999993 25.0
    vertex 12.300000000000002 9.5 25.0
    vertex 19.3 -20.500000000000004 25.0
  endloop
endfacet
facet normal -1.0 0.0 0.0
  outer loop
    vertex 12.300000000000002 9.5 22.999999999999996
    vertex 12.300000000000002 -15.500000000000002 19.999999999999996
    vertex 12.300000000000002 -15.500000000000002 22.999999999999996
  endloop
endfacet
facet normal -1.0 0.0 0.0
  outer loop
    vertex 12.300000000000002 -15.500000000000002 19.999999999999996
    vertex 12.300000000000002 9.5 22.999999999999996
    vertex 12.300000000000002 9.5 19.999999999999996
  endloop
endfacet
facet normal -1.0 0.0 0.0
  outer loop
    vertex -20.699999999999992 19.499999999999993 25.0
    vertex -20.699999999999992 -20.500000000000004 12.499999999999996
    vertex -20.699999999999992 -20.500000000000004 25.0
  endloop
endfacet
facet normal -1.0 0.0 0.0
  outer loop
    vertex -20.699999999999992 -20.500000000000004 12.499999999999996
    vertex -20.699999999999992 19.499999999999993 25.0
    vertex -20.699999999999992 19.499999999999993 12.499999999999996
  endloop
endfacet
facet normal 0.8944271909999161 0.0 -0.44721359549995804
  outer loop
    vertex -13.699999999999994 9.5 25.0
    vertex -13.699999999999994 -20.500000000000004 25.0
    vertex -14.699999999999996 9.5 22.999999999999996
  endloop
endfacet
facet normal -0.0 1.0 -0.0
  outer loop
    vertex -5.199999999999996 -15.0 19.999999999999996
    vertex 3.8000000000000043 -15.0 17.500000000000004
    vertex -5.199999999999996 -15.0 17.500000000000004
  endloop
endfacet
facet normal -0.0 1.0 -0.0
  outer loop
    vertex 3.8000000000000043 -15.0 17.500000000000004
    vertex -5.199999999999996 -15.0 19.999999999999996
    vertex 3.8000000000000043 -15.0 19.999999999999996
  endloop
endfacet
facet normal -0.0 -0.0 1.0
  outer loop
    vertex -6.031256952648672 -60.074775973994 14.499999999999998
    vertex -4.031256952648671 -36.57477597399401 14.499999999999998
    vertex -6.031256952648672 -30.074775973994008 14.499999999999998
  endloop
endfacet
facet normal -0.0 -0.0 1.0
  outer loop
    vertex -4.031256952648671 -36.57477597399401 14.499999999999998
    vertex -6.031256952648672 -60.074775973994 14.499999999999998
    vertex 18.56874304735133 -60.074775973994 14.499999999999998
  endloop
endfacet
facet normal -0.0 -0.0 1.0
  outer loop
    vertex -4.031256952648671 -36.57477597399401 14.499999999999998
    vertex 18.56874304735133 -60.074775973994 14.499999999999998
    vertex 16.568743047351326 -36.574775973994015 14.499999999999998
  endloop
endfacet
facet normal -0.0 -0.0 1.0
  outer loop
    vertex 16.568743047351326 -36.574775973994015 14.499999999999998
    vertex 18.56874304735133 -60.074775973994 14.499999999999998
    vertex 16.568743047351326 -30.074775973994008 14.499999999999998
  endloop
endfacet
facet normal -0.0 -0.0 1.0
  outer loop
    vertex 16.568743047351326 -30.074775973994008 14.499999999999998
    vertex 18.56874304735133 -60.074775973994 14.499999999999998
    vertex 18.56874304735133 -30.074775973994008 14.499999999999998
  endloop
endfacet
facet normal -0.0 -0.0 1.0
  outer loop
    vertex -4.031256952648671 -30.074775973994008 14.499999999999998
    vertex -6.031256952648672 -30.074775973994008 14.499999999999998
    vertex -4.031256952648671 -36.57477597399401 14.499999999999998
  endloop
endfacet
facet normal 0.0 -1.0 0.0
  outer loop
    vertex 18.56874304735133 -60.074775973994 14.499999999999998
    vertex -7.031256952648673 -60.074775973994 12.499999999999996
    vertex 19.56874304735133 -60.074775973994 12.499999999999996
  endloop
endfacet
facet normal 0.0 -1.0 0.0
  outer loop
    vertex -7.031256952648673 -60.074775973994 12.499999999999996
    vertex 18.56874304735133 -60.074775973994 14.499999999999998
    vertex -6.031256952648672 -60.074775973994 14.499999999999998
  endloop
endfacet
facet normal 0.8944271909999159 1.5805941585779418e-32 0.4472135954999579
  outer loop
    vertex 19.56874304735133 -30.074775973994008 12.499999999999996
    vertex 18.56874304735133 -60.074775973994 14.499999999999998
    vertex 19.56874304735133 -60.074775973994 12.499999999999996
  endloop
endfacet
facet normal 0.8944271909999159 1.5805941585779418e-32 0.4472135954999579
  outer loop
    vertex 18.56874304735133 -60.074775973994 14.499999999999998
    vertex 19.56874304735133 -30.074775973994008 12.499999999999996
    vertex 18.56874304735133 -30.074775973994008 14.499999999999998
  endloop
endfacet
facet normal -0.8944271909999159 0.0 0.4472135954999579
  outer loop
    vertex -6.031256952648672 -30.074775973994008 14.499999999999998
    vertex -7.031256952648673 -60.074775973994 12.499999999999996
    vertex -6.031256952648672 -60.074775973994 14.499999999999998
  endloop
endfacet
facet normal -0.8944271909999159 0.0 0.4472135954999579
  outer loop
    vertex -7.031256952648673 -60.074775973994 12.499999999999996
    vertex -6.031256952648672 -30.074775973994008 14.499999999999998
    vertex -7.031256952648673 -30.074775973994008 12.499999999999996
  endloop
endfacet
facet normal -0.0 1.0 -0.0
  outer loop
    vertex -6.031256952648672 -30.074775973994008 14.499999999999998
    vertex -4.031256952648671 -30.074775973994008 12.499999999999996
    vertex -7.031256952648673 -30.074775973994008 12.499999999999996
  endloop
endfacet
facet normal -0.0 1.0 -0.0
  outer loop
    vertex -4.031256952648671 -30.074775973994008 12.499999999999996
    vertex -6.031256952648672 -30.074775973994008 14.499999999999998
    vertex -4.031256952648671 -30.074775973994008 14.499999999999998
  endloop
endfacet
facet normal 0.0 0.0 -1.0
  outer loop
    vertex 19.56874304735133 -30.074775973994008 12.499999999999996
    vertex 16.568743047351326 -36.574775973994015 12.499999999999996
    vertex 16.568743047351326 -30.074775973994008 12.499999999999996
  endloop
endfacet
facet normal 0.0 0.0 -1.0
  outer loop
    vertex -4.031256952648671 -30.074775973994008 12.499999999999996
    vertex -7.031256952648673 -60.074775973994 12.499999999999996
    vertex -7.031256952648673 -30.074775973994008 12.499999999999996
  endloop
endfacet
facet normal 0.0 0.0 -1.0
  outer loop
    vertex -7.031256952648673 -60.074775973994 12.499999999999996
    vertex -4.031256952648671 -30.074775973994008 12.499999999999996
    vertex -4.031256952648671 -36.57477597399401 12.499999999999996
  endloop
endfacet
facet normal 0.0 0.0 -1.0
  outer loop
    vertex -7.031256952648673 -60.074775973994 12.499999999999996
    vertex -4.031256952648671 -36.57477597399401 12.499999999999996
    vertex 19.56874304735133 -60.074775973994 12.499999999999996
  endloop
endfacet
facet normal 0.0 0.0 -1.0
  outer loop
    vertex 19.56874304735133 -60.074775973994 12.499999999999996
    vertex -4.031256952648671 -36.57477597399401 12.499999999999996
    vertex 16.568743047351326 -36.574775973994015 12.499999999999996
  endloop
endfacet
facet normal 0.0 0.0 -1.0
  outer loop
    vertex 19.56874304735133 -60.074775973994 12.499999999999996
    vertex 16.568743047351326 -36.574775973994015 12.499999999999996
    vertex 19.56874304735133 -30.074775973994008 12.499999999999996
  endloop
endfacet
facet normal -0.0 1.0 -0.0
  outer loop
    vertex 16.568743047351326 -30.074775973994008 14.499999999999998
    vertex 19.56874304735133 -30.074775973994008 12.499999999999996
    vertex 16.568743047351326 -30.074775973994008 12.499999999999996
  endloop
endfacet
facet normal -0.0 1.0 -0.0
  outer loop
    vertex 19.56874304735133 -30.074775973994008 12.499999999999996
    vertex 16.568743047351326 -30.074775973994008 14.499999999999998
    vertex 18.56874304735133 -30.074775973994008 14.499999999999998
  endloop
endfacet
facet normal 2.7378315364542693e-16 1.0 -0.0
  outer loop
    vertex -4.031256952648671 -36.57477597399401 14.499999999999998
    vertex 16.568743047351326 -36.574775973994015 12.499999999999996
    vertex -4.031256952648671 -36.57477597399401 12.499999999999996
  endloop
endfacet
facet normal 2.7378315364542693e-16 1.0 -0.0
  outer loop
    vertex 16.568743047351326 -36.574775973994015 12.499999999999996
    vertex -4.031256952648671 -36.57477597399401 14.499999999999998
    vertex 16.568743047351326 -36.574775973994015 14.499999999999998
  endloop
endfacet
facet normal -1.0 0.0 0.0
  outer loop
    vertex 16.568743047351326 -30.074775973994008 14.499999999999998
    vertex 16.568743047351326 -36.574775973994015 12.499999999999996
    vertex 16.568743047351326 -36.574775973994015 14.499999999999998
  endloop
endfacet
facet normal -1.0 0.0 0.0
  outer loop
    vertex 16.568743047351326 -36.574775973994015 12.499999999999996
    vertex 16.568743047351326 -30.074775973994008 14.499999999999998
    vertex 16.568743047351326 -30.074775973994008 12.499999999999996
  endloop
endfacet
facet normal 1.0 -0.0 -0.0
  outer loop
    vertex -4.031256952648671 -30.074775973994008 12.499999999999996
    vertex -4.031256952648671 -36.57477597399401 14.499999999999998
    vertex -4.031256952648671 -36.57477597399401 12.499999999999996
  endloop
endfacet
facet normal 1.0 -0.0 -0.0
  outer loop
    vertex -4.031256952648671 -36.57477597399401 14.499999999999998
    vertex -4.031256952648671 -30.074775973994008 12.499999999999996
    vertex -4.031256952648671 -30.074775973994008 14.499999999999998
  endloop
endfacet
facet normal 0.0 0.0 1.0
  outer loop
    vertex 10.168396000000003 -15.0 18.999999999999996
    vertex 4.800000000000004 -9.0 18.999999999999996
    vertex 4.800000000000004 -15.0 18.999999999999996
  endloop
endfacet
facet normal 0.0 0.0 1.0
  outer loop
    vertex 4.800000000000004 -9.0 18.999999999999996
    vertex 10.168396000000003 -15.0 18.999999999999996
    vertex 10.168396000000003 -8.999999999999998 18.999999999999996
  endloop
endfacet
facet normal 0.9999999999999999 0.0 0.0
  outer loop
    vertex 4.800000000000004 -9.0 18.999999999999996
    vertex 4.800000000000004 -15.0 19.999999999999996
    vertex 4.800000000000004 -15.0 18.999999999999996
  endloop
endfacet
facet normal 0.9999999999999999 0.0 0.0
  outer loop
    vertex 4.800000000000004 -15.0 19.999999999999996
    vertex 4.800000000000004 -9.0 18.999999999999996
    vertex 4.800000000000004 -9.0 19.999999999999996
  endloop
endfacet
facet normal -0.0 1.0 -0.0
  outer loop
    vertex 4.800000000000004 -15.0 19.999999999999996
    vertex 10.168396000000003 -15.0 18.999999999999996
    vertex 4.800000000000004 -15.0 18.999999999999996
  endloop
endfacet
facet normal -0.0 1.0 -0.0
  outer loop
    vertex 10.168396000000003 -15.0 18.999999999999996
    vertex 4.800000000000004 -15.0 19.999999999999996
    vertex 10.168396000000003 -15.0 19.999999999999996
  endloop
endfacet
facet normal 0.0 0.0 -1.0
  outer loop
    vertex -3.987001872802008 12.267257993871164 17.999999999999996
    vertex -5.199999999999996 4.499999999999997 17.999999999999996
    vertex -5.199999999999996 11.855500613600508 17.999999999999996
  endloop
endfacet
facet normal 0.0 0.0 -1.0
  outer loop
    vertex -5.199999999999996 4.499999999999997 17.999999999999996
    vertex -3.987001872802008 12.267257993871164 17.999999999999996
    vertex 3.8000000000000043 4.499999999999997 17.999999999999996
  endloop
endfacet
facet normal 0.0 0.0 -1.0
  outer loop
    vertex 3.8000000000000043 4.499999999999997 17.999999999999996
    vertex -3.987001872802008 12.267257993871164 17.999999999999996
    vertex -2.357682641194648 12.59134973944739 17.999999999999996
  endloop
endfacet
facet normal 0.0 0.0 -1.0
  outer loop
    vertex 3.8000000000000043 4.499999999999997 17.999999999999996
    vertex -2.357682641194648 12.59134973944739 17.999999999999996
    vertex -0.6999999999999951 12.699999999999996 17.999999999999996
  endloop
endfacet
facet normal 0.0 0.0 -1.0
  outer loop
    vertex 3.8000000000000043 4.499999999999997 17.999999999999996
    vertex -0.6999999999999951 12.699999999999996 17.999999999999996
    vertex 0.9576826411946607 12.591349739447388 17.999999999999996
  endloop
endfacet
facet normal 0.0 0.0 -1.0
  outer loop
    vertex 3.8000000000000043 4.499999999999997 17.999999999999996
    vertex 0.9576826411946607 12.591349739447388 17.999999999999996
    vertex 2.5870018728020203 12.267257993871162 17.999999999999996
  endloop
endfacet
facet normal 0.0 0.0 -1.0
  outer loop
    vertex 3.8000000000000043 4.499999999999997 17.999999999999996
    vertex 2.5870018728020203 12.267257993871162 17.999999999999996
    vertex 3.8000000000000043 11.855500613600508 17.999999999999996
  endloop
endfacet
facet normal -0.9999999999999999 0.0 -0.0
  outer loop
    vertex 10.168396000000003 -8.999999999999998 19.999999999999996
    vertex 10.168396000000003 -15.0 18.999999999999996
    vertex 10.168396000000003 -15.0 19.999999999999996
  endloop
endfacet
facet normal -0.9999999999999999 0.0 -0.0
  outer loop
    vertex 10.168396000000003 -15.0 18.999999999999996
    vertex 10.168396000000003 -8.999999999999998 19.999999999999996
    vertex 10.168396000000003 -8.999999999999998 18.999999999999996
  endloop
endfacet
facet normal 6.603306741311435e-17 -2.4260871789281935e-17 -1.0
  outer loop
    vertex -13.291349739447385 1.6576826411946572 17.5
    vertex -13.291349739447389 -1.6576826411946546 17.5
    vertex -13.399999999999995 -1.2646650476307592e-15 17.5
  endloop
endfacet
facet normal 6.603306741311435e-17 -2.4260871789281935e-17 -1.0
  outer loop
    vertex -13.291349739447389 -1.6576826411946546 17.5
    vertex -13.291349739447385 1.6576826411946572 17.5
    vertex -12.967257993871165 -3.287001872802011 17.5
  endloop
endfacet
facet normal 6.603306741311435e-17 -2.4260871789281935e-17 -1.0
  outer loop
    vertex -12.967257993871165 -3.287001872802011 17.5
    vertex -13.291349739447385 1.6576826411946572 17.5
    vertex -12.967257993871161 3.287001872802014 17.5
  endloop
endfacet
facet normal 6.603306741311435e-17 -2.4260871789281935e-17 -1.0
  outer loop
    vertex -12.967257993871165 -3.287001872802011 17.5
    vertex -12.967257993871161 3.287001872802014 17.5
    vertex -12.433270062893339 -4.8600795910366354 17.5
  endloop
endfacet
facet normal 6.603306741311435e-17 -2.4260871789281935e-17 -1.0
  outer loop
    vertex -12.433270062893339 -4.8600795910366354 17.5
    vertex -12.967257993871161 3.287001872802014 17.5
    vertex -12.433270062893337 4.860079591036638 17.5
  endloop
endfacet
facet normal 6.603306741311435e-17 -2.4260871789281935e-17 -1.0
  outer loop
    vertex -12.433270062893339 -4.8600795910366354 17.5
    vertex -12.433270062893337 4.860079591036638 17.5
    vertex -11.698522628062369 -6.35 17.5
  endloop
endfacet
facet normal 6.603306741311435e-17 -2.4260871789281935e-17 -1.0
  outer loop
    vertex -11.698522628062369 -6.35 17.5
    vertex -12.433270062893337 4.860079591036638 17.5
    vertex -11.698522628062364 6.350000000000001 17.5
  endloop
endfacet
facet normal 6.603306741311435e-17 -2.4260871789281935e-17 -1.0
  outer loop
    vertex -11.698522628062369 -6.35 17.5
    vertex -11.698522628062364 6.350000000000001 17.5
    vertex -10.775587421698685 -7.731270148410751 17.5
  endloop
endfacet
facet normal 6.603306741311435e-17 -2.4260871789281935e-17 -1.0
  outer loop
    vertex -10.775587421698685 -7.731270148410751 17.5
    vertex -11.698522628062364 6.350000000000001 17.5
    vertex -10.77558742169868 7.7312701484107516 17.5
  endloop
endfacet
facet normal 6.603306741311435e-17 -2.4260871789281935e-17 -1.0
  outer loop
    vertex -10.775587421698685 -7.731270148410751 17.5
    vertex -10.77558742169868 7.7312701484107516 17.5
    vertex -9.680256121069155 -8.98025612106915 17.5
  endloop
endfacet
facet normal 6.603306741311435e-17 -2.4260871789281935e-17 -1.0
  outer loop
    vertex -9.680256121069155 -8.98025612106915 17.5
    vertex -10.77558742169868 7.7312701484107516 17.5
    vertex -9.680256121069148 8.98025612106915 17.5
  endloop
endfacet
facet normal 6.603306741311435e-17 -2.4260871789281935e-17 -1.0
  outer loop
    vertex -9.680256121069155 -8.98025612106915 17.5
    vertex -9.680256121069148 8.98025612106915 17.5
    vertex -8.43127014841075 -10.075587421698685 17.5
  endloop
endfacet
facet normal 6.603306741311435e-17 -2.4260871789281935e-17 -1.0
  outer loop
    vertex -8.43127014841075 -10.075587421698685 17.5
    vertex -9.680256121069148 8.98025612106915 17.5
    vertex -8.431270148410743 10.075587421698685 17.5
  endloop
endfacet
facet normal 6.603306741311435e-17 -2.4260871789281935e-17 -1.0
  outer loop
    vertex -8.43127014841075 -10.075587421698685 17.5
    vertex -8.431270148410743 10.075587421698685 17.5
    vertex -7.050000000000002 -10.99852262806237 17.5
  endloop
endfacet
facet normal 6.603306741311435e-17 -2.4260871789281935e-17 -1.0
  outer loop
    vertex -7.050000000000002 -10.99852262806237 17.5
    vertex -8.431270148410743 10.075587421698685 17.5
    vertex -7.049999999999993 10.99852262806237 17.5
  endloop
endfacet
facet normal 6.603306741311435e-17 -2.4260871789281935e-17 -1.0
  outer loop
    vertex -7.050000000000002 -10.99852262806237 17.5
    vertex -7.049999999999993 10.99852262806237 17.5
    vertex -5.560079591036643 -11.733270062893341 17.5
  endloop
endfacet
facet normal 6.603306741311435e-17 -2.4260871789281935e-17 -1.0
  outer loop
    vertex -5.560079591036643 -11.733270062893341 17.5
    vertex -7.049999999999993 10.99852262806237 17.5
    vertex -5.560079591036632 11.73327006289334 17.5
  endloop
endfacet
facet normal 6.603306741311435e-17 -2.4260871789281935e-17 -1.0
  outer loop
    vertex -5.560079591036643 -11.733270062893341 17.5
    vertex -5.560079591036632 11.73327006289334 17.5
    vertex -5.199999999999996 -11.855500613600512 17.5
  endloop
endfacet
facet normal 6.603306741311435e-17 -2.4260871789281935e-17 -1.0
  outer loop
    vertex -5.199999999999996 -11.855500613600512 17.5
    vertex -5.560079591036632 11.73327006289334 17.5
    vertex -5.199999999999996 11.855500613600508 17.5
  endloop
endfacet
facet normal 6.603306741311435e-17 -2.4260871789281935e-17 -1.0
  outer loop
    vertex -5.199999999999996 -11.855500613600512 17.5
    vertex -5.199999999999996 11.855500613600508 17.5
    vertex -5.199999999999996 4.499999999999997 17.5
  endloop
endfacet
facet normal -1.0 -0.0 -0.0
  outer loop
    vertex 3.8000000000000043 11.855500613600508 17.999999999999996
    vertex 3.8000000000000043 4.499999999999997 17.5
    vertex 3.8000000000000043 4.499999999999997 17.999999999999996
  endloop
endfacet
facet normal -1.0 -0.0 -0.0
  outer loop
    vertex 3.8000000000000043 4.499999999999997 17.5
    vertex 3.8000000000000043 11.855500613600508 17.999999999999996
    vertex 3.8000000000000043 11.855500613600508 17.5
  endloop
endfacet
facet normal 2.6264516277747563e-16 -1.0 -0.0
  outer loop
    vertex 10.168396000000003 -8.999999999999998 19.999999999999996
    vertex 4.800000000000004 -9.0 18.999999999999996
    vertex 10.168396000000003 -8.999999999999998 18.999999999999996
  endloop
endfacet
facet normal 2.6264516277747563e-16 -1.0 -0.0
  outer loop
    vertex 4.800000000000004 -9.0 18.999999999999996
    vertex 10.168396000000003 -8.999999999999998 19.999999999999996
    vertex 4.800000000000004 -9.0 19.999999999999996
  endloop
endfacet
facet normal 1.0 -0.0 -0.0
  outer loop
    vertex -5.199999999999996 11.855500613600508 17.5
    vertex -5.199999999999996 4.499999999999997 17.999999999999996
    vertex -5.199999999999996 4.499999999999997 17.5
  endloop
endfacet
facet normal 1.0 -0.0 -0.0
  outer loop
    vertex -5.199999999999996 4.499999999999997 17.999999999999996
    vertex -5.199999999999996 11.855500613600508 17.5
    vertex -5.199999999999996 11.855500613600508 17.999999999999996
  endloop
endfacet
facet normal -0.0 -0.0 1.0
  outer loop
    vertex 7.800000000000005 9.5 20.999999999999996
    vertex -9.199999999999996 19.499999999999993 20.999999999999996
    vertex -9.199999999999996 9.5 20.999999999999996
  endloop
endfacet
facet normal -0.0 -0.0 1.0
  outer loop
    vertex -9.199999999999996 19.499999999999993 20.999999999999996
    vertex 7.800000000000005 9.5 20.999999999999996
    vertex 7.800000000000005 19.499999999999993 20.999999999999996
  endloop
endfacet
endsolid raspiberry pi mount
