solid OpenSCAD_Model
  facet normal -0.57735 0.57735 -0.57735
    outer loop
      vertex -10.6066 5.3033 5.3033
      vertex 5.3033 10.6066 -5.3033
      vertex 5.3033 5.3033 -10.6066
    endloop
  endfacet
  facet normal -0.57735 0.57735 -0.57735
    outer loop
      vertex 5.3033 10.6066 -5.3033
      vertex -10.6066 5.3033 5.3033
      vertex -5.3033 10.6066 5.3033
    endloop
  endfacet
  facet normal -0.57735 0.57735 -0.57735
    outer loop
      vertex -10.6066 -5.3033 -5.3033
      vertex 5.3033 5.3033 -10.6066
      vertex -5.3033 -5.3033 -10.6066
    endloop
  endfacet
  facet normal -0.57735 0.57735 -0.57735
    outer loop
      vertex 5.3033 5.3033 -10.6066
      vertex -10.6066 -5.3033 -5.3033
      vertex -10.6066 5.3033 5.3033
    endloop
  endfacet
  facet normal 0.57735 -0.57735 0.57735
    outer loop
      vertex 5.3033 -5.3033 10.6066
      vertex 5.3033 -10.6066 5.3033
      vertex 10.6066 -5.3033 5.3033
    endloop
  endfacet
  facet normal 0.57735 0.57735 -0.57735
    outer loop
      vertex 10.6066 5.3033 -5.3033
      vertex 5.3033 5.3033 -10.6066
      vertex 5.3033 10.6066 -5.3033
    endloop
  endfacet
  facet normal -0.57735 -0.57735 0.57735
    outer loop
      vertex 5.3033 -5.3033 10.6066
      vertex -10.6066 5.3033 5.3033
      vertex -10.6066 -5.3033 -5.3033
    endloop
  endfacet
  facet normal -0.57735 -0.57735 0.57735
    outer loop
      vertex -10.6066 5.3033 5.3033
      vertex 5.3033 -5.3033 10.6066
      vertex -5.3033 5.3033 10.6066
    endloop
  endfacet
  facet normal -0.57735 -0.57735 0.57735
    outer loop
      vertex 5.3033 -10.6066 5.3033
      vertex -10.6066 -5.3033 -5.3033
      vertex -5.3033 -10.6066 -5.3033
    endloop
  endfacet
  facet normal -0.57735 -0.57735 0.57735
    outer loop
      vertex -10.6066 -5.3033 -5.3033
      vertex 5.3033 -10.6066 5.3033
      vertex 5.3033 -5.3033 10.6066
    endloop
  endfacet
  facet normal -0.57735 0.57735 0.57735
    outer loop
      vertex -5.3033 10.6066 5.3033
      vertex -10.6066 5.3033 5.3033
      vertex -5.3033 5.3033 10.6066
    endloop
  endfacet
  facet normal 0.57735 -0.57735 -0.57735
    outer loop
      vertex -5.3033 -5.3033 -10.6066
      vertex 10.6066 5.3033 -5.3033
      vertex 10.6066 -5.3033 5.3033
    endloop
  endfacet
  facet normal 0.57735 -0.57735 -0.57735
    outer loop
      vertex 10.6066 5.3033 -5.3033
      vertex -5.3033 -5.3033 -10.6066
      vertex 5.3033 5.3033 -10.6066
    endloop
  endfacet
  facet normal 0.57735 -0.57735 -0.57735
    outer loop
      vertex -5.3033 -10.6066 -5.3033
      vertex 10.6066 -5.3033 5.3033
      vertex 5.3033 -10.6066 5.3033
    endloop
  endfacet
  facet normal 0.57735 -0.57735 -0.57735
    outer loop
      vertex 10.6066 -5.3033 5.3033
      vertex -5.3033 -10.6066 -5.3033
      vertex -5.3033 -5.3033 -10.6066
    endloop
  endfacet
  facet normal 0.57735 0.57735 0.57735
    outer loop
      vertex 10.6066 5.3033 -5.3033
      vertex -5.3033 10.6066 5.3033
      vertex -5.3033 5.3033 10.6066
    endloop
  endfacet
  facet normal 0.57735 0.57735 0.57735
    outer loop
      vertex -5.3033 10.6066 5.3033
      vertex 10.6066 5.3033 -5.3033
      vertex 5.3033 10.6066 -5.3033
    endloop
  endfacet
  facet normal 0.57735 0.57735 0.57735
    outer loop
      vertex 10.6066 -5.3033 5.3033
      vertex -5.3033 5.3033 10.6066
      vertex 5.3033 -5.3033 10.6066
    endloop
  endfacet
  facet normal 0.57735 0.57735 0.57735
    outer loop
      vertex -5.3033 5.3033 10.6066
      vertex 10.6066 -5.3033 5.3033
      vertex 10.6066 5.3033 -5.3033
    endloop
  endfacet
  facet normal -0.57735 -0.57735 -0.57735
    outer loop
      vertex -5.3033 -10.6066 -5.3033
      vertex -10.6066 -5.3033 -5.3033
      vertex -5.3033 -5.3033 -10.6066
    endloop
  endfacet
endsolid OpenSCAD_Model
